<svg width="235" height="65" viewBox="0 0 235 65" fill="none" xmlns="http://www.w3.org/2000/svg">
<rect width="235" height="65" fill="white"/>
<path d="M191.788 34.4898L184.516 27.253C184.255 26.9494 183.796 26.914 183.491 27.1741C183.185 27.434 183.15 27.8909 183.411 28.1944C183.436 28.2227 183.462 28.2492 183.491 28.2734L189.519 34.2799H160.727C160.326 34.2799 160 34.604 160 35.0037C160 35.4034 160.326 35.7273 160.727 35.7273H189.519L183.491 41.7266C183.185 41.9866 183.15 42.4435 183.411 42.747C183.673 43.0506 184.132 43.086 184.437 42.8259C184.465 42.8017 184.492 42.7753 184.516 42.747L191.789 35.5102C192.07 35.228 192.07 34.7721 191.788 34.4898Z" fill="#FF0000"/>
</svg>
