<svg width="53" height="48" viewBox="0 0 53 48" fill="none" xmlns="http://www.w3.org/2000/svg">
<path d="M46.9717 17.7821L46.9635 17.749C46.8313 17.2206 46.2912 16.8984 45.7571 17.0291C45.2231 17.1599 44.8972 17.6941 45.0294 18.2226L45.0354 18.2465C45.1459 18.6975 45.5535 19 46.0027 19C46.0805 19 46.1595 18.9909 46.2383 18.972C46.7729 18.8437 47.1014 18.311 46.9717 17.7821Z" fill="#20037D"/>
<path d="M19.5504 31.9726C17.2391 30.3344 15.8591 27.4657 15.8591 24.299C15.8591 23.3202 15.9926 22.3585 16.2556 21.4406C16.4194 20.8691 16.1577 20.2496 15.6711 20.0573C15.1846 19.8651 14.6573 20.1724 14.4935 20.7439C14.1661 21.8868 14 23.0829 14 24.2991C14 28.2378 15.716 31.8056 18.59 33.8428C18.7403 33.9493 18.9058 34 19.0694 34C19.3844 34 19.6916 33.8117 19.8662 33.4718C20.1314 32.9555 19.9901 32.2843 19.5504 31.9726Z" fill="#20037D"/>
<path d="M31.6723 16.0802C29.6927 14.094 27.1044 13 24.3843 13C23.1103 13 21.8638 13.238 20.6795 13.7071C20.1398 13.921 19.865 14.5604 20.0656 15.1356C20.2662 15.7108 20.8662 16.0036 21.406 15.7898C22.3573 15.4129 23.3592 15.2218 24.3844 15.2218C26.5712 15.2218 28.6518 16.1011 30.243 17.6978C30.4443 17.8999 30.7011 18 30.9574 18C31.2347 18 31.5114 17.8828 31.7166 17.6506C32.1112 17.2039 32.0913 16.5007 31.6723 16.0802Z" fill="#20037D"/>
<path fill-rule="evenodd" clip-rule="evenodd" d="M51.9649 24.315H44.1779V22.1469C44.1779 21.093 43.331 20.2355 42.2902 20.2355H40.9007C40.1891 16.8868 38.5504 13.8368 36.1452 11.4014C32.0639 7.26899 26.2325 5.42609 20.5461 6.47075C19.9837 6.57409 19.6104 7.11953 19.7125 7.68908C19.8145 8.25862 20.3533 8.63615 20.9157 8.53312C25.9341 7.61099 31.0803 9.23725 34.6814 12.8836C36.6977 14.9253 38.1041 17.4556 38.7779 20.2356H33.1274C32.0865 20.2356 31.2397 21.0931 31.2397 22.147V24.3151H23.4526C22.881 24.3151 22.4176 24.7845 22.4176 25.3631V31.7922C22.4176 32.7759 22.7959 33.6713 23.4121 34.339V39.7173C19.3742 39.6475 15.6032 38.0301 12.7246 35.1153C9.02956 31.3741 7.4466 26.0409 8.49014 20.849C8.60412 20.2819 8.24243 19.7285 7.68231 19.6131C7.12198 19.4976 6.57562 19.8639 6.46165 20.431C5.2793 26.314 7.07322 32.3574 11.2606 36.5973C14.4827 39.8597 18.871 41.7325 23.412 41.8116V45.6092C23.412 45.7076 23.4185 45.8042 23.43 45.8994C11.6271 45.7507 2.07 35.9847 2.07 23.9994C2.07 20.2517 3.01148 16.5883 4.79971 13.3419L8.29202 16.8947C8.48631 17.0923 8.75038 17.2034 9.02563 17.2034H15.5357L21.9178 23.6654C22.1199 23.8701 22.3848 23.9724 22.6496 23.9724C22.9145 23.9724 23.1795 23.8701 23.3815 23.6654C23.7857 23.2561 23.7857 22.5925 23.3815 22.1831L16.9993 15.7212V9.12961C16.9993 8.85123 16.8899 8.58427 16.6952 8.38765L13.1932 4.85047C16.3953 3.04593 20.0074 2.09592 23.7025 2.09592C32.0993 2.09592 39.8074 7.08211 43.3403 14.799C43.5155 15.1815 43.8894 15.4065 44.2801 15.4065C44.4258 15.4065 44.5738 15.3751 44.7147 15.309C45.2333 15.0655 45.4589 14.4425 45.2185 13.9174C43.3429 9.82052 40.3718 6.34885 36.6261 3.87782C32.7808 1.34085 28.3118 0 23.7026 0C19.4562 0 15.3087 1.14548 11.6743 3.31634L8.69542 0.307203C8.39905 0.00796568 7.95414 -0.0813337 7.56772 0.0811241C7.18119 0.243477 6.92944 0.62541 6.92944 1.04906V6.98841H1.0454C0.627098 6.98841 0.250094 7.24321 0.0896445 7.63416C-0.0708047 8.02521 0.0167695 8.47548 0.311789 8.77566L3.2861 11.8015C1.13505 15.4863 0 19.6923 0 23.9993C0 30.4098 2.46554 36.4367 6.94238 40.9696C11.4192 45.5026 17.3716 47.9988 23.7028 47.9988L49.6441 48C50.9461 48 52.0054 46.9276 52.0054 45.6091V34.3394C52.6472 33.6455 53 32.7455 53 31.7902V25.3629C53 24.7843 52.5366 24.315 51.9649 24.315ZM8.99944 3.57491L14.9294 9.56426V13.6209L8.99944 7.60313V3.57491ZM13.4656 15.107L7.53501 9.08454H3.53589L9.45584 15.107H13.4656ZM33.3097 22.3316H42.1076V24.315H33.3097V22.3316ZM43.1427 40.8727H49.9351V35.4699C49.7314 35.5048 49.5234 35.5237 49.3126 35.5237H49.3102L40.7772 35.5182C40.5969 37.071 39.2899 38.2799 37.7087 38.2799C36.1299 38.2799 34.8245 37.0748 34.641 35.5254H26.1047C25.8925 35.5254 25.6846 35.5062 25.482 35.4711V45.6091C25.482 45.7679 25.6068 45.8969 25.7621 45.9028H27.0201C27.024 45.9028 27.0278 45.9031 27.0316 45.9034L27.0318 45.9034C27.0352 45.9037 27.0386 45.9039 27.0421 45.904H49.6441C49.8047 45.904 49.9352 45.7717 49.9352 45.609V42.9687H43.1427C42.5711 42.9687 42.1077 42.4994 42.1077 41.9207C42.1077 41.3421 42.5711 40.8727 43.1427 40.8727ZM36.6883 35.1506V33.3084H38.7292V35.1506C38.7292 35.7204 38.2714 36.1839 37.7088 36.1839C37.1462 36.1839 36.6883 35.7204 36.6883 35.1506ZM50.4558 32.9484C50.7616 32.6391 50.9299 32.2279 50.9299 31.7902H50.9298V26.411H24.4874V31.792C24.4874 32.6948 25.2129 33.4294 26.1047 33.4294H34.618V32.4618C34.618 31.7728 35.1716 31.2123 35.852 31.2123H39.5652C40.2457 31.2123 40.7992 31.7729 40.7992 32.4618V33.4223L49.3115 33.4277H49.3126C49.7444 33.4277 50.1503 33.2575 50.4558 32.9484Z" fill="#20037D"/>
<path d="M38.707 41.293C38.521 41.107 38.2629 41 38 41C37.736 41 37.479 41.1069 37.292 41.293C37.106 41.479 37 41.7371 37 42C37 42.263 37.106 42.521 37.292 42.7069C37.479 42.8929 37.7361 43 38 43C38.263 43 38.5201 42.893 38.707 42.7069C38.893 42.521 39 42.2629 39 42C39 41.7371 38.893 41.479 38.707 41.293Z" fill="#20037D"/>
</svg>
