<svg width="88" height="80" viewBox="0 0 88 80" fill="none" xmlns="http://www.w3.org/2000/svg">
<path d="M77.9575 30.1731L77.9453 30.1234C77.747 29.3309 76.9368 28.8476 76.1357 29.0436C75.3347 29.2398 74.8458 30.0411 75.0441 30.8338L75.0531 30.8698C75.2188 31.5463 75.8302 32 76.5041 32C76.6207 32 76.7392 31.9864 76.8574 31.958C77.6594 31.7655 78.1521 30.9664 77.9575 30.1731Z" fill="#959595"/>
<path d="M32.2507 53.6693C28.3985 50.9779 26.0986 46.265 26.0986 41.0627C26.0986 39.4547 26.3209 37.8746 26.7593 36.3667C27.0323 35.4278 26.5961 34.4101 25.7852 34.0941C24.9743 33.7783 24.0956 34.2832 23.8225 35.2222C23.2768 37.0997 23 39.0648 23 41.0629C23 47.5336 25.8599 53.3949 30.65 56.7418C30.9006 56.9167 31.1764 57 31.449 57C31.974 57 32.486 56.6907 32.777 56.1323C33.2191 55.284 32.9835 54.1814 32.2507 53.6693Z" fill="#959595"/>
<path d="M52.4538 26.9283C49.1545 23.7503 44.8407 22 40.3071 22C38.1839 22 36.1064 22.3808 34.1325 23.1313C33.2331 23.4735 32.775 24.4966 33.1093 25.4169C33.4437 26.3372 34.4437 26.8058 35.3434 26.4636C36.9288 25.8606 38.5987 25.5549 40.3073 25.5549C43.9519 25.5549 47.4197 26.9617 50.0717 29.5165C50.4072 29.8398 50.8352 30 51.2623 30C51.7245 30 52.1857 29.8125 52.5276 29.4409C53.1853 28.7263 53.1521 27.6012 52.4538 26.9283Z" fill="#959595"/>
<path fill-rule="evenodd" clip-rule="evenodd" d="M86.2814 40.525H73.352V36.9115C73.352 35.155 71.9458 33.7259 70.2176 33.7259H67.9106C66.7291 28.1447 64.0081 23.0613 60.0146 19.0023C53.2381 12.115 43.5559 9.04349 34.1143 10.7846C33.1805 10.9568 32.5607 11.8659 32.7302 12.8151C32.8996 13.7644 33.7942 14.3936 34.728 14.2219C43.0604 12.685 51.605 15.3954 57.5841 21.4727C60.9321 24.8754 63.2672 29.0927 64.3859 33.7261H55.004C53.2757 33.7261 51.8696 35.1552 51.8696 36.9116V40.5252H38.9402C37.9911 40.5252 37.2216 41.3074 37.2216 42.2719V52.9869C37.2216 54.6265 37.8498 56.1189 38.873 57.2316V66.1954C32.1685 66.0791 25.9072 63.3835 21.1276 58.5255C14.9925 52.2901 12.3642 43.4016 14.0968 34.7483C14.2861 33.8031 13.6855 32.8808 12.7555 32.6884C11.8252 32.4959 10.918 33.1065 10.7288 34.0517C8.76562 43.8566 11.7442 53.929 18.6969 60.9956C24.0467 66.4329 31.333 69.5541 38.8728 69.686V76.0154C38.8728 76.1793 38.8836 76.3403 38.9027 76.4989C19.3053 76.2512 3.43698 59.9745 3.43698 39.999C3.43698 33.7528 5.00019 27.6472 7.96933 22.2365L13.7679 28.1578C14.0905 28.4872 14.5289 28.6724 14.986 28.6724H25.7952L36.3918 39.4423C36.7275 39.7835 37.1673 39.954 37.6069 39.954C38.0468 39.954 38.4868 39.7835 38.8221 39.4423C39.4933 38.7602 39.4933 37.6542 38.8221 36.9719L28.2253 26.202V15.216C28.2253 14.752 28.0436 14.3071 27.7203 13.9794L21.9056 8.08411C27.2224 5.07655 33.2198 3.49319 39.3551 3.49319C53.2969 3.49319 66.0954 11.8035 71.9613 24.6649C72.2521 25.3025 72.8729 25.6774 73.5216 25.6774C73.7636 25.6774 74.0094 25.6252 74.2433 25.515C75.1044 25.1092 75.4789 24.0708 75.0798 23.1957C71.9656 16.3675 67.0325 10.5814 60.8132 6.46303C54.4285 2.23476 47.0083 0 39.3553 0C32.3046 0 25.4182 1.90914 19.3837 5.52723L14.4377 0.512004C13.9456 0.0132761 13.2069 -0.135556 12.5653 0.135207C11.9235 0.405795 11.5055 1.04235 11.5055 1.74843V11.6474H1.73577C1.04122 11.6474 0.41525 12.072 0.148844 12.7236C-0.117562 13.3753 0.0278437 14.1258 0.517687 14.6261L5.45617 19.6691C1.88461 25.8105 0 32.8205 0 39.9989C0 50.683 4.09372 60.7278 11.527 68.2826C18.9602 75.8376 28.8434 79.9981 39.3556 79.9981L82.428 80C84.5898 80 86.3486 78.2126 86.3486 76.0152V57.2323C87.4143 56.0759 88 54.5759 88 52.9836V42.2715C88 41.3071 87.2305 40.525 86.2814 40.525ZM14.9425 5.95818L24.7885 15.9404V22.7015L14.9425 12.6719V5.95818ZM22.358 25.1783L12.511 15.1409H5.87091L15.7003 25.1783H22.358ZM55.3066 37.2193H69.9145V40.525H55.3066V37.2193ZM71.6332 68.1212H82.9111V59.1165C82.5729 59.1747 82.2276 59.2061 81.8775 59.2061H81.8735L67.7055 59.197C67.4061 61.785 65.236 63.7998 62.6106 63.7998C59.9892 63.7998 57.8218 61.7913 57.5171 59.2091H43.3436C42.9913 59.2091 42.6461 59.1769 42.3098 59.1186V76.0152C42.3098 76.2799 42.5169 76.4948 42.7749 76.5047H44.8635C44.8759 76.5047 44.8877 76.5065 44.9001 76.5066H82.428C82.6946 76.5066 82.9113 76.2862 82.9113 76.0151V71.6146H71.6332C70.6841 71.6146 69.9146 70.8323 69.9146 69.8679C69.9146 68.9034 70.6841 68.1212 71.6332 68.1212ZM60.9165 58.5844V55.5139H64.3051V58.5844C64.3051 59.534 63.5449 60.3064 62.6108 60.3064C61.6767 60.3064 60.9165 59.534 60.9165 58.5844ZM83.7757 54.9141C84.2834 54.3986 84.5628 53.7131 84.5628 52.9836H84.5627V44.0184H40.6584V52.9866C40.6584 54.4913 41.8629 55.7157 43.3436 55.7157H57.479V54.103C57.479 52.9546 58.3981 52.0206 59.5279 52.0206H65.6932C66.8231 52.0206 67.7421 52.9548 67.7421 54.103V55.7038L81.8757 55.7129H81.8775C82.5945 55.7129 83.2684 55.4292 83.7757 54.9141Z" fill="#959595"/>
<path d="M64.5605 69.4395C64.2814 69.1605 63.8944 69 63.5 69C63.104 69 62.7186 69.1604 62.438 69.4395C62.159 69.7186 62 70.1056 62 70.5C62 70.8945 62.159 71.2814 62.438 71.5603C62.7186 71.8393 63.1041 72 63.5 72C63.8945 72 64.2801 71.8395 64.5605 71.5603C64.8395 71.2814 65 70.8944 65 70.5C65 70.1056 64.8395 69.7186 64.5605 69.4395Z" fill="#959595"/>
</svg>
