<svg width="45" height="45" viewBox="0 0 45 45" fill="none" xmlns="http://www.w3.org/2000/svg">
<path d="M21 17V19.0001H19V22H21V31H25V22H27.66L28 19.0001H25V17.25C25 16.4401 25.08 16.01 26.33 16.01H28V13H25.32C22.1201 13.0001 21 14.5 21 17Z" fill="#20037D"/>
<path fill-rule="evenodd" clip-rule="evenodd" d="M0 22.5C0 10.0736 10.0736 0 22.5 0C34.9264 0 45 10.0736 45 22.5C45 34.9264 34.9264 45 22.5 45C10.0736 45 0 34.9264 0 22.5ZM2.04548 22.5C2.04548 33.7968 11.2032 42.9545 22.5 42.9545C33.7968 42.9545 42.9545 33.7968 42.9545 22.5C42.9545 11.2032 33.7968 2.04548 22.5 2.04548C11.2032 2.04548 2.04548 11.2032 2.04548 22.5Z" fill="#20037D"/>
</svg>
