<svg width="265" height="65" viewBox="0 0 265 65" fill="none" xmlns="http://www.w3.org/2000/svg">
<rect width="265" height="65" fill="#20037D"/>
<path d="M206.788 34.4898L199.516 27.253C199.255 26.9494 198.796 26.914 198.491 27.1741C198.185 27.434 198.15 27.8909 198.411 28.1944C198.436 28.2227 198.462 28.2492 198.491 28.2734L204.519 34.2799H175.727C175.326 34.2799 175 34.604 175 35.0037C175 35.4034 175.326 35.7273 175.727 35.7273H204.519L198.491 41.7266C198.185 41.9866 198.15 42.4435 198.411 42.747C198.673 43.0506 199.132 43.086 199.437 42.8259C199.465 42.8017 199.492 42.7753 199.516 42.747L206.789 35.5102C207.07 35.228 207.07 34.7721 206.788 34.4898Z" fill="white"/>
</svg>
