<svg width="45" height="45" viewBox="0 0 45 45" fill="none" xmlns="http://www.w3.org/2000/svg">
<path d="M16 18C17.1046 18 18 17.1046 18 16C18 14.8954 17.1046 14 16 14C14.8954 14 14 14.8954 14 16C14 17.1046 14.8954 18 16 18Z" fill="#20037D"/>
<rect x="14" y="20" width="4" height="11" fill="#20037D"/>
<path fill-rule="evenodd" clip-rule="evenodd" d="M0 22.5C0 10.0736 10.0736 0 22.5 0C34.9264 0 45 10.0736 45 22.5C45 34.9264 34.9264 45 22.5 45C10.0736 45 0 34.9264 0 22.5ZM2.04548 22.5C2.04548 33.7968 11.2032 42.9545 22.5 42.9545C33.7968 42.9545 42.9545 33.7968 42.9545 22.5C42.9545 11.2032 33.7968 2.04548 22.5 2.04548C11.2032 2.04548 2.04548 11.2032 2.04548 22.5Z" fill="#20037D"/>
<path d="M28.36 20C25.36 20 25 21.78 25 21.78V20H21V31H25V25C25 25 25 23 26.7 23C27.7 23 28 23.89 28 25V31H32V25C32 21.87 30.64 20 28.36 20Z" fill="#20037D"/>
</svg>
