<svg width="235" height="65" viewBox="0 0 235 65" fill="none" xmlns="http://www.w3.org/2000/svg">
<rect width="235" height="65" fill="#20037D"/>
<path d="M187.788 32.4898L180.516 25.253C180.255 24.9494 179.796 24.914 179.491 25.1741C179.185 25.434 179.15 25.8909 179.411 26.1944C179.436 26.2227 179.462 26.2492 179.491 26.2734L185.519 32.2799H156.727C156.326 32.2799 156 32.604 156 33.0037C156 33.4034 156.326 33.7273 156.727 33.7273H185.519L179.491 39.7266C179.185 39.9866 179.15 40.4435 179.411 40.747C179.673 41.0506 180.132 41.086 180.437 40.8259C180.465 40.8017 180.492 40.7753 180.516 40.747L187.789 33.5102C188.07 33.228 188.07 32.7721 187.788 32.4898Z" fill="white"/>
</svg>
