<svg width="48" height="63" viewBox="0 0 48 63" fill="none" xmlns="http://www.w3.org/2000/svg">
<path fill-rule="evenodd" clip-rule="evenodd" d="M0 24.1172C0 10.8189 10.7663 0 24 0C37.2337 0 48 10.8189 48 24.1172C48 28.3739 46.8808 32.5588 44.7635 36.2196C44.2698 37.073 43.7181 37.9046 43.1233 38.6916L25.0427 63H22.9572L4.87665 38.6915C4.2818 37.9046 3.73004 37.0729 3.23645 36.2195C1.11918 32.5588 0 28.3739 0 24.1172ZM16 24C16 28.4112 19.5888 32 24 32C28.4112 32 32 28.4112 32 24C32 19.5888 28.4112 16 24 16C19.5888 16 16 19.5888 16 24Z" fill="#20037D"/>
</svg>
