<svg width="68" height="68" viewBox="0 0 68 68" fill="none" xmlns="http://www.w3.org/2000/svg">
<rect width="68" height="68" fill="#20037D"/>
<path d="M49.7885 33.4898L42.5159 26.253C42.2547 25.9494 41.7956 25.914 41.4905 26.1741C41.1855 26.434 41.1499 26.8909 41.4112 27.1944C41.4356 27.2227 41.4621 27.2492 41.4905 27.2734L47.5195 33.2799H18.7272C18.3256 33.2799 18 33.604 18 34.0037C18 34.4034 18.3256 34.7273 18.7272 34.7273H47.5195L41.4905 40.7266C41.1855 40.9866 41.1499 41.4435 41.4112 41.747C41.6725 42.0506 42.1316 42.086 42.4366 41.8259C42.4651 41.8017 42.4916 41.7753 42.5159 41.747L49.7886 34.5102C50.0705 34.228 50.0705 33.7721 49.7885 33.4898Z" fill="white"/>
</svg>
