<svg width="68" height="68" viewBox="0 0 68 68" fill="none" xmlns="http://www.w3.org/2000/svg">
<rect x="68" y="68" width="68" height="68" transform="rotate(180 68 68)" fill="#E8E8E8"/>
<path d="M18.2115 34.5102L25.4841 41.747C25.7453 42.0506 26.2044 42.086 26.5095 41.8259C26.8145 41.566 26.8501 41.1091 26.5888 40.8056C26.5644 40.7773 26.5379 40.7508 26.5095 40.7266L20.4805 34.7201H49.2728C49.6744 34.7201 50 34.396 50 33.9963C50 33.5966 49.6744 33.2727 49.2728 33.2727H20.4805L26.5095 27.2734C26.8145 27.0134 26.8501 26.5565 26.5888 26.253C26.3275 25.9494 25.8684 25.914 25.5634 26.1741C25.5349 26.1983 25.5084 26.2247 25.4841 26.253L18.2114 33.4898C17.9295 33.772 17.9295 34.2279 18.2115 34.5102Z" fill="#959595"/>
</svg>
