<svg width="87" height="87" viewBox="0 0 87 87" fill="none" xmlns="http://www.w3.org/2000/svg">
<path fill-rule="evenodd" clip-rule="evenodd" d="M86.5024 12.8379C85.8387 12.1745 84.7631 12.1745 84.0992 12.8379C80.626 16.3114 78.0393 20.7314 76.6192 25.62C76.5271 25.9364 76.4257 26.2615 76.3181 26.5856C74.5649 31.8484 71.4711 35.6952 71.3399 35.8566C71.2889 35.9193 71.2349 35.9795 71.1792 36.0354C70.3539 36.8604 69.0468 36.9268 68.1386 36.1895C67.7218 35.8512 67.4572 35.3944 67.3515 34.9066C67.3483 34.8947 67.3461 34.8826 67.3428 34.8707C67.2142 34.2281 67.3619 33.5349 67.8066 32.9872C67.8322 32.9555 70.3855 29.7773 71.8655 25.5532C73.8862 19.7864 73.0077 14.7919 69.3252 11.109C67.6677 9.45173 65.488 8.50642 63.1869 8.44728C60.852 8.38526 58.6796 9.24289 57.0665 10.8558C55.4106 12.5114 54.5566 14.7421 54.6618 17.1369C54.7168 18.3906 53.7416 19.4555 52.4879 19.5108C51.2346 19.5667 50.1692 18.5904 50.1141 17.3369C49.9546 13.705 51.3152 10.1695 53.8477 7.63707C57.32 4.16476 62.4444 2.99736 67.22 4.59077C69.7967 5.4501 72.5798 4.80284 74.4818 2.90084C75.1453 2.23727 75.1453 1.16129 74.4818 0.497549C73.8181 -0.16585 72.7425 -0.16585 72.0786 0.497549C71.0929 1.48347 69.6433 1.81653 68.2951 1.36673C62.2899 -0.63655 55.8327 0.844882 51.4443 5.23344C48.2399 8.43828 46.5174 12.9042 46.7188 17.4859C46.7794 18.8657 47.3315 20.1088 48.1974 21.0561L45.8569 23.3969C45.6331 23.0143 45.3602 22.6599 45.0444 22.344L44.9416 22.2412C42.913 20.2129 39.6128 20.2127 37.5843 22.2413C35.5559 24.2699 35.5559 27.5703 37.5843 29.5987L37.6874 29.7017C38.0033 30.0176 38.3574 30.2903 38.7399 30.5141L35.8752 33.3788C35.4193 33.8347 35.1213 34.3876 34.9731 34.9713C34.3896 35.1195 33.8367 35.4176 33.3808 35.8733L30.5162 38.7379C30.2926 38.3554 30.0195 38.0011 29.7038 37.6852L29.601 37.5824C27.5725 35.5538 24.2723 35.554 22.2437 37.5824C20.2154 39.611 20.2154 42.9114 22.2437 44.94L22.3465 45.0428C22.6624 45.3585 23.0167 45.6316 23.3992 45.8552L21.0582 48.1963C20.11 47.33 18.8657 46.7779 17.4854 46.7171C12.9052 46.5147 8.43827 48.2381 5.23372 51.4429C0.845489 55.8312 -0.63623 62.2882 1.36681 68.2942C1.81642 69.6422 1.48354 71.092 0.497658 72.0778C-0.165886 72.7414 -0.165886 73.8173 0.497658 74.4811C1.16137 75.1445 2.23698 75.1445 2.90086 74.4811C4.8028 72.5789 5.45054 69.7962 4.59073 67.219C2.99755 62.4425 4.16491 57.3182 7.63709 53.8462C10.1691 51.314 13.7008 49.9527 17.3364 50.1124C18.5901 50.1676 19.5653 51.2327 19.5104 52.4863C19.4552 53.7402 18.3914 54.713 17.1366 54.6604C14.7436 54.5557 12.5116 55.4087 10.8556 57.0648C7.54567 60.3749 7.65952 65.8744 11.1089 69.3241C13.775 71.9903 16.8049 72.9245 19.7425 72.9244C26.5698 72.9239 32.8972 67.8782 32.9872 67.8049C33.9615 67.0143 35.3977 67.1636 36.1885 68.138C36.9257 69.0463 36.8592 70.3534 36.0354 71.1775C35.9783 71.2346 35.918 71.289 35.8557 71.3394C35.6944 71.4705 31.8464 74.5647 26.5847 76.3178C26.2656 76.4242 25.9407 76.5255 25.6194 76.6188C20.7308 78.039 16.3111 80.6257 12.8379 84.0992C12.1743 84.7627 12.1743 85.8385 12.8379 86.5023C13.1697 86.8342 13.6046 87 14.0392 87C14.4742 87 14.9091 86.834 15.2409 86.5023C18.3104 83.4327 22.2271 81.1436 26.5674 79.8824C26.931 79.7769 27.2984 79.6622 27.659 79.542C33.5007 77.5957 37.8161 74.1251 37.997 73.9784C38.1493 73.8549 38.2971 73.7217 38.4375 73.5816C40.4971 71.5214 40.6645 68.2605 38.8271 65.9964C38.815 65.9815 38.8021 65.9677 38.7899 65.9529L41.1428 63.5999C41.3666 63.9824 41.6395 64.3369 41.9553 64.6526L42.0582 64.7554C44.0867 66.7837 47.3869 66.7839 49.4154 64.7553C51.4438 62.7267 51.4438 59.4263 49.4154 57.3979L49.3126 57.2951C48.9967 56.9792 48.6423 56.7063 48.2598 56.4825L51.1245 53.6178C51.5804 53.1619 51.8784 52.609 52.0266 52.0253C52.6101 51.8771 53.1631 51.579 53.6189 51.1233L57.3645 47.3776C58.0082 46.7339 58.2621 45.7871 58.0269 44.9067C57.7932 44.031 57.1056 43.3406 56.232 43.1047C55.9265 43.0225 55.6568 42.866 55.4307 42.6397L55.3279 42.5368C54.6244 41.8335 54.6244 40.6891 55.3279 39.9857C56.031 39.2824 57.1754 39.2821 57.8789 39.9857L57.9817 40.0885C58.208 40.3147 58.3645 40.5844 58.4469 40.8902C58.6826 41.7635 59.3728 42.4512 60.2486 42.6849C61.1292 42.9204 62.0758 42.666 62.7195 42.0225L65.9517 38.7901C65.9582 38.7955 65.9646 38.8011 65.971 38.8067L65.9711 38.8067C65.9795 38.8141 65.988 38.8215 65.9967 38.8285C67.048 39.6817 68.314 40.1026 69.5749 40.1026C71.03 40.1026 72.4782 39.5422 73.5819 38.4387C73.7204 38.3 73.8539 38.1519 73.9783 37.9986C74.1251 37.818 77.5954 33.5033 79.5422 27.6593C79.6641 27.2936 79.7784 26.9264 79.8824 26.5684C81.1434 22.2279 83.4324 18.3111 86.502 15.2413C87.1659 14.5774 87.1659 13.5014 86.5024 12.8379ZM30.8499 65.1622C30.7439 65.2472 20.1717 73.5805 13.5121 66.9206C11.3876 64.796 11.2739 61.4527 13.2586 59.468C14.2326 58.4943 15.5617 57.993 16.9872 58.0553C19.169 58.1536 21.1185 56.9975 22.1457 55.2286L23.4001 56.483C23.0125 56.7083 22.6531 56.9841 22.3326 57.3044L22.231 57.4064C21.2483 58.3889 20.707 59.6955 20.707 61.085C20.707 62.4748 21.2483 63.7812 22.2308 64.7638C24.2594 66.792 27.5592 66.792 29.5891 64.7627L29.6906 64.6609C30.0105 64.3411 30.2861 63.9823 30.5115 63.5945L31.5774 64.6606C31.3259 64.8066 31.0826 64.9734 30.8499 65.1622ZM44.976 54.9599L48.7216 51.2142C48.7468 51.1891 48.7468 51.1483 48.7213 51.1231L45.8936 48.2954C45.6957 48.6011 45.4646 48.8864 45.2014 49.1498L45.0986 49.2526C44.1161 50.2351 42.8097 50.7763 41.4199 50.7763C40.0305 50.7763 38.7239 50.2351 37.7415 49.2526C35.7131 47.2238 35.7131 43.9235 37.7415 41.895L37.8443 41.7922C38.1041 41.5324 38.3919 41.3006 38.7 41.1013L35.875 38.2764C35.8499 38.2513 35.8089 38.2513 35.7838 38.2764L32.0382 42.0221C31.3942 42.666 30.4472 42.919 29.5669 42.6845C28.6911 42.4505 28.001 41.7628 27.7655 40.8896C27.6833 40.584 27.5268 40.3144 27.3004 40.0882L27.1976 39.9854C26.8569 39.6447 26.4039 39.4571 25.922 39.4571C25.4403 39.4571 24.9873 39.6447 24.6466 39.9854C24.3059 40.3261 24.1183 40.7791 24.1183 41.261C24.1183 41.7428 24.3059 42.1958 24.6466 42.5365L24.7494 42.6393C24.9756 42.8657 25.2452 43.0222 25.5508 43.1044C26.4243 43.3403 27.112 44.0307 27.3456 44.9063C27.5808 45.7867 27.327 46.7336 26.6833 47.3772L26.6825 47.3779L26.6821 47.3784L22.9377 51.123C22.9126 51.1481 22.9126 51.1891 22.9377 51.2142L26.6875 54.964C27.3329 55.6097 27.5861 56.5586 27.3485 57.4405C27.1123 58.3177 26.4213 59.0071 25.5452 59.2396C25.2369 59.3211 24.9649 59.4785 24.7365 59.7067L24.635 59.8085C24.2932 60.1502 24.1056 60.6032 24.1056 61.085C24.1056 61.5669 24.2932 62.0199 24.6339 62.3606C25.3373 63.0641 26.4818 63.0636 27.1852 62.3606L27.2868 62.2587C27.5128 62.0328 27.6741 61.7533 27.755 61.4493C27.9876 60.5728 28.6773 59.8819 29.5546 59.6457C29.7733 59.5867 29.9961 59.558 30.2173 59.558C30.8883 59.558 31.5453 59.8219 32.0304 60.3072L35.7841 64.0609C35.7893 64.0661 35.7959 64.0678 35.8026 64.0695L35.8072 64.0707L35.8101 64.0716C35.8181 64.0737 35.8259 64.0761 35.8339 64.0781C35.8489 64.0771 35.864 64.0723 35.8754 64.0609L39.621 60.3152C40.2648 59.6714 41.2113 59.4171 42.0923 59.6528C42.9681 59.8867 43.6581 60.5745 43.8936 61.4478C43.9759 61.7533 44.1324 62.0228 44.3586 62.249L44.4617 62.352C45.165 63.0553 46.3093 63.055 47.0129 62.352C47.716 61.6486 47.716 60.5042 47.0127 59.8008L46.9099 59.698C46.6836 59.4717 46.4139 59.315 46.1084 59.2328C45.2353 58.9972 44.5475 58.307 44.3137 57.4314C44.0784 56.5508 44.3322 55.6038 44.976 54.9599ZM64.062 35.8736L61.1976 38.7379C60.974 38.3554 60.7009 38.0011 60.3852 37.6852L60.2824 37.5824C58.2539 35.5538 54.9537 35.554 52.9252 37.5824C50.8968 39.611 50.8968 42.9114 52.9252 44.94L53.028 45.0428C53.3438 45.3585 53.6983 45.6316 54.0806 45.8552L51.2161 48.7198C51.1909 48.745 51.15 48.745 51.1248 48.7198L47.4618 45.0569C46.8302 44.4254 45.9341 44.1705 45.0636 44.3761C44.1985 44.5802 43.5145 45.2042 43.2333 46.0457C43.145 46.3106 42.9987 46.5463 42.7985 46.7465L42.6957 46.8493C41.9924 47.5528 40.848 47.5524 40.1447 46.8494C39.4414 46.1459 39.4414 45.0015 40.1447 44.2981L40.2475 44.1953C40.4478 43.995 40.6835 43.8487 40.9484 43.7602C41.7897 43.4793 42.4138 42.7948 42.6177 41.9297C42.8228 41.0595 42.5681 40.163 41.9367 39.5317L38.2782 35.8731C38.2531 35.848 38.2531 35.807 38.2782 35.7819L42.0238 32.0362C42.6677 31.3923 42.9215 30.4453 42.6862 29.5647C42.4524 28.6891 41.7645 27.9988 40.8915 27.7633C40.5861 27.6811 40.3163 27.5244 40.0899 27.2981L39.9871 27.1953C39.2838 26.4919 39.2838 25.3475 39.987 24.6441C40.6904 23.941 41.8347 23.9406 42.5382 24.6441L42.641 24.7469C42.8673 24.9733 43.024 25.243 43.1062 25.5483C43.3417 26.4214 44.0318 27.1093 44.9074 27.3431C45.7879 27.5784 46.7347 27.3247 47.3789 26.6809L51.1245 22.9352C51.1496 22.91 51.1906 22.91 51.2157 22.9352L54.8742 26.5937C55.5061 27.2253 56.4024 27.4799 57.2728 27.2746C58.138 27.0705 58.822 26.4464 59.1027 25.6052C59.1912 25.3403 59.3375 25.1046 59.5368 24.9053L59.6406 24.8015C59.9813 24.4608 60.4343 24.2732 60.9161 24.2732C61.398 24.2732 61.851 24.4608 62.1917 24.8016C62.5324 25.1424 62.72 25.5954 62.72 26.0773C62.72 26.559 62.5324 27.0121 62.1917 27.3528L62.089 27.4554C61.8885 27.6558 61.6527 27.8021 61.3878 27.8906C60.5467 28.1715 59.9225 28.8558 59.7185 29.7209C59.5132 30.5909 59.7677 31.4875 60.3993 32.1194L64.062 35.7822C64.066 35.7862 64.0677 35.791 64.0691 35.796C64.0694 35.7971 64.0697 35.7982 64.07 35.7993C64.0706 35.8018 64.0713 35.8044 64.0722 35.8069L64.079 35.8327C64.0778 35.8475 64.0734 35.8623 64.062 35.8736ZM64.6632 31.5767C64.8097 31.3242 64.9772 31.0796 65.1668 30.846C65.2479 30.7447 73.58 20.1706 66.9216 13.5118C65.8831 12.4732 64.5257 11.881 63.0992 11.8443C61.7135 11.8124 60.417 12.3108 59.4692 13.2586C58.4955 14.2321 57.9939 15.5564 58.0566 16.9872C58.1525 19.167 56.9984 21.1166 55.2313 22.1445L56.4437 23.3569C56.6429 23.0487 56.8748 22.7608 57.1346 22.501L57.2385 22.3973C58.2201 21.4158 59.5265 20.8744 60.9161 20.8744C62.3057 20.8744 63.6122 21.4158 64.5947 22.3985C66.6231 24.427 66.6231 27.7273 64.5947 29.7559L64.4919 29.8587C64.2319 30.1185 63.9441 30.3503 63.636 30.5495L64.6632 31.5767Z" fill="#959595"/>
<path d="M20.4887 18.0193L13.9806 11.5112C13.2986 10.8296 12.1935 10.8296 11.5113 11.5112C10.8296 12.193 10.8296 13.2985 11.5113 13.9805L18.0196 20.4886C18.3606 20.8294 18.8073 21 19.2541 21C19.7009 21 20.1477 20.8294 20.4887 20.4886C21.1704 19.8068 21.1704 18.7013 20.4887 18.0193Z" fill="#959595"/>
<path d="M25.5603 23.4395C25.2815 23.1605 24.8945 23 24.5 23C24.1054 23 23.7185 23.1603 23.4395 23.4395C23.1605 23.7186 23 24.1055 23 24.5C23 24.896 23.1603 25.2815 23.4395 25.5603C23.7186 25.8408 24.1055 26 24.5 26C24.8945 26 25.2815 25.8408 25.5603 25.5603C25.8393 25.2815 26 24.8945 26 24.5C26 24.1055 25.8395 23.72 25.5603 23.4395Z" fill="#959595"/>
<path d="M16.399 28C16.3989 28 16.3986 28 16.3984 28L11.6003 28.0019C10.7161 28.0022 9.99968 28.6737 10 29.5016C10.0003 30.3292 10.7171 31 11.601 31C11.6011 31 11.6014 31 11.6016 31L16.3997 30.9981C17.2839 30.9978 18.0003 30.3263 18 29.4984C17.9997 28.6708 17.2829 28 16.399 28Z" fill="#959595"/>
<path d="M30.9981 11.5411C30.9978 10.6899 30.3266 10 29.499 10C29.4989 10 29.4986 10 29.4984 10C28.6707 10.0003 27.9997 10.6909 28 11.5424L28.0019 16.4589C28.0022 17.3101 28.6734 18 29.501 18C29.5011 18 29.5014 18 29.5016 18C30.3293 17.9997 31.0003 17.3091 31 16.4576L30.9981 11.5411Z" fill="#959595"/>
<path d="M75.4887 73.0193L68.9806 66.5112C68.2987 65.8296 67.1935 65.8296 66.5113 66.5112C65.8296 67.193 65.8296 68.2985 66.5113 68.9805L73.0195 75.4886C73.3605 75.8294 73.8073 76 74.2541 76C74.7009 76 75.1477 75.8294 75.4887 75.4886C76.1704 74.8068 76.1704 73.7013 75.4887 73.0193Z" fill="#959595"/>
<path d="M63.5605 61.4396C63.2815 61.1606 62.8945 61 62.5 61C62.1055 61 61.7185 61.1605 61.4395 61.4396C61.1607 61.7185 61 62.1055 61 62.5C61 62.8945 61.1605 63.2815 61.4395 63.5605C61.7185 63.8395 62.1055 64 62.5 64C62.8945 64 63.2815 63.8396 63.5605 63.5605C63.8393 63.2815 64 62.8945 64 62.5C64 62.1055 63.8395 61.7185 63.5605 61.4396Z" fill="#959595"/>
<path d="M75.399 56C75.3989 56 75.3986 56 75.3984 56L70.6003 56.0019C69.7161 56.0022 68.9997 56.6737 69 57.5016C69.0003 58.3292 69.7171 59 70.601 59C70.6011 59 70.6014 59 70.6016 59L75.3997 58.9981C76.2839 58.9978 77.0003 58.3263 77 57.4984C76.9997 56.6708 76.2831 56 75.399 56Z" fill="#959595"/>
<path d="M58.9981 70.5411C58.9979 69.6898 58.3268 69 57.499 69C57.4989 69 57.4986 69 57.4984 69C56.6707 69.0003 55.9997 69.6909 56 70.5424L56.0019 75.4589C56.0022 76.3101 56.6734 77 57.501 77C57.5011 77 57.5014 77 57.5016 77C58.3293 76.9997 59.0003 76.3091 59 75.4576L58.9981 70.5411Z" fill="#959595"/>
</svg>
