<svg width="53" height="53" viewBox="0 0 53 53" fill="none" xmlns="http://www.w3.org/2000/svg">
<path fill-rule="evenodd" clip-rule="evenodd" d="M52.6969 7.82078C52.2925 7.41664 51.6373 7.41664 51.2328 7.82078C49.117 9.93681 47.5412 12.6295 46.6761 15.6076C46.62 15.8004 46.5582 15.9984 46.4926 16.1958C45.4246 19.4019 43.5399 21.7454 43.46 21.8437C43.4289 21.8819 43.396 21.9185 43.362 21.9526C42.8593 22.4552 42.063 22.4957 41.5097 22.0465C41.2558 21.8404 41.0946 21.5621 41.0302 21.2649L41.0293 21.2614L41.0276 21.254C41.0268 21.2504 41.0259 21.2467 41.025 21.2431C40.9466 20.8516 41.0365 20.4293 41.3074 20.0957C41.3231 20.0763 42.8785 18.1402 43.7801 15.5669C45.0111 12.0538 44.476 9.01114 42.2326 6.76757C41.2229 5.75795 39.895 5.18207 38.4932 5.14605C37.0708 5.10826 35.7473 5.63072 34.7646 6.61333C33.7559 7.62192 33.2356 8.98081 33.2997 10.4397C33.3332 11.2035 32.7392 11.8522 31.9754 11.8859C31.2119 11.9199 30.5628 11.3252 30.5293 10.5616C30.4321 8.34904 31.261 6.19521 32.8037 4.65247C34.9191 2.53715 38.0408 1.82598 40.9501 2.79668C42.5198 3.32017 44.2153 2.92587 45.374 1.76718C45.7782 1.36293 45.7782 0.707451 45.374 0.303104C44.9696 -0.101035 44.3144 -0.101035 43.9099 0.303104C43.3094 0.903723 42.4263 1.10662 41.6051 0.832605C37.9467 -0.387783 34.013 0.514698 31.3396 3.18819C29.3875 5.14056 28.3382 7.86115 28.4609 10.6523C28.4978 11.4929 28.8341 12.2502 29.3616 12.8273L27.9358 14.2533C27.7995 14.0202 27.6333 13.8043 27.4408 13.6119L27.3782 13.5492C26.1424 12.3136 24.1319 12.3135 22.8962 13.5493C21.6605 14.7851 21.6605 16.7957 22.8962 18.0314L22.959 18.0941C23.1514 18.2866 23.3672 18.4527 23.6002 18.5891L21.855 20.3342C21.5773 20.6119 21.3957 20.9488 21.3054 21.3044C20.95 21.3946 20.6131 21.5762 20.3354 21.8538L18.5903 23.599C18.4541 23.366 18.2878 23.1501 18.0954 22.9577L18.0328 22.895C16.797 21.6592 14.7866 21.6593 13.5508 22.895C12.3151 24.1309 12.3151 26.1414 13.5508 27.3772L13.6134 27.4399C13.8058 27.6322 14.0217 27.7985 14.2547 27.9348L12.8286 29.361C12.2509 28.8332 11.4929 28.4969 10.652 28.4598C7.86178 28.3365 5.14056 29.3864 3.18836 31.3388C0.515068 34.0121 -0.387588 37.9457 0.832653 41.6045C1.10656 42.4257 0.903769 43.3089 0.303171 43.9095C-0.101057 44.3137 -0.101057 44.9692 0.303171 45.3735C0.707503 45.7777 1.36276 45.7777 1.76719 45.3735C2.92584 44.2147 3.32044 42.5195 2.79665 40.9495C1.82609 38.0397 2.53724 34.918 4.65248 32.8029C6.19497 31.2602 8.34644 30.4309 10.5613 30.5282C11.325 30.5619 11.9191 31.2107 11.8856 31.9744C11.852 32.7383 11.204 33.3309 10.4395 33.2988C8.98171 33.2351 7.62203 33.7547 6.61317 34.7636C4.59679 36.7801 4.66615 40.1304 6.76751 42.2319C8.39167 43.8561 10.2375 44.4253 12.027 44.4252C16.1862 44.4249 20.0408 41.3511 20.0957 41.3065C20.6892 40.8248 21.5641 40.9158 22.0459 41.5094C22.4949 42.0627 22.4545 42.8589 21.9526 43.361C21.9178 43.3958 21.8811 43.4289 21.8431 43.4597C21.7449 43.5395 19.4007 45.4245 16.1953 46.4925C16.0009 46.5573 15.803 46.619 15.6072 46.6758C12.6291 47.541 9.93664 49.1168 7.82078 51.2328C7.41655 51.6371 7.41655 52.2924 7.82078 52.6968C8.02295 52.899 8.28785 53 8.55264 53C8.81764 53 9.08253 52.8989 9.2847 52.6968C11.1546 50.8268 13.5406 49.4323 16.1847 48.664C16.4063 48.5997 16.6301 48.5298 16.8497 48.4566C20.4085 47.2709 23.0374 45.1567 23.1476 45.0673C23.2404 44.9921 23.3304 44.9109 23.4159 44.8256C24.6706 43.5705 24.7726 41.584 23.6533 40.2047L23.6483 40.1987L23.6409 40.1902L23.6306 40.1782L25.064 38.7448C25.2003 38.9778 25.3666 39.1937 25.559 39.3861L25.6216 39.4487C26.8574 40.6843 28.8679 40.6844 30.1036 39.4486C31.3393 38.2128 31.3393 36.2022 30.1036 34.9665L30.041 34.9039C29.8486 34.7115 29.6327 34.5452 29.3996 34.4089L31.1448 32.6637C31.4225 32.386 31.6041 32.0491 31.6944 31.6936C32.0498 31.6033 32.3867 31.4217 32.6644 31.1441L34.9462 28.8622C35.3383 28.4701 35.493 27.8933 35.3497 27.3569C35.2074 26.8235 34.7885 26.4029 34.2563 26.2592C34.0702 26.2091 33.9059 26.1138 33.7681 25.9759L33.7055 25.9133C33.2769 25.4848 33.2769 24.7876 33.7055 24.3591C34.1338 23.9307 34.831 23.9304 35.2596 24.3591L35.3222 24.4217C35.4601 24.5595 35.5554 24.7238 35.6056 24.9102C35.7492 25.4421 36.1697 25.8611 36.7032 26.0034C37.2396 26.1469 37.8163 25.9919 38.2084 25.5999L40.1775 23.6308C40.1867 23.6384 40.1955 23.6466 40.2049 23.6542C40.8454 24.1739 41.6165 24.4303 42.3847 24.4303C43.2711 24.4303 44.1534 24.0889 44.8257 23.4167C44.9101 23.3322 44.9915 23.2419 45.0672 23.1486C45.1567 23.0385 47.2708 20.4101 48.4568 16.8499C48.531 16.6272 48.6006 16.4035 48.664 16.1853C49.4322 13.5411 50.8266 11.155 52.6966 9.28495C53.1011 8.8805 53.1011 8.22502 52.6969 7.82078ZM18.7936 39.6965C18.729 39.7483 12.2885 44.8249 8.23153 40.7677C6.93728 39.4734 6.86803 37.4367 8.07709 36.2276C8.67044 35.6344 9.48014 35.3291 10.3485 35.367C11.6777 35.4269 12.8653 34.7226 13.4911 33.645L14.2552 34.4092C14.0191 34.5465 13.8002 34.7145 13.6049 34.9096L13.543 34.9717C12.9444 35.5703 12.6146 36.3662 12.6146 37.2127C12.6146 38.0594 12.9444 38.8552 13.5429 39.4538C14.7787 40.6894 16.789 40.6894 18.0256 39.4532L18.0874 39.3912C18.2823 39.1963 18.4502 38.9777 18.5874 38.7415L19.2368 39.3909C19.0836 39.4799 18.9354 39.5815 18.7936 39.6965ZM27.3992 33.4813L29.681 31.1995C29.6963 31.1841 29.6963 31.1593 29.6808 31.144L27.9582 29.4213C27.8376 29.6075 27.6968 29.7814 27.5365 29.9418L27.4738 30.0044C26.8753 30.603 26.0795 30.9327 25.2328 30.9327C24.3864 30.9327 23.5905 30.603 22.9919 30.0044C21.7563 28.7685 21.7563 26.758 22.9919 25.5223L23.0546 25.4596C23.2128 25.3014 23.3882 25.1602 23.5759 25.0387L21.8549 23.3178C21.8396 23.3025 21.8146 23.3025 21.7993 23.3178L19.5175 25.5997C19.1252 25.9919 18.5483 26.1461 18.012 26.0032C17.4785 25.8607 17.0581 25.4417 16.9146 24.9097C16.8645 24.7236 16.7692 24.5593 16.6313 24.4215L16.5687 24.3589C16.3611 24.1514 16.0852 24.0371 15.7916 24.0371C15.4981 24.0371 15.2221 24.1514 15.0146 24.3589C14.807 24.5665 14.6928 24.8425 14.6928 25.136C14.6928 25.4295 14.807 25.7055 15.0146 25.913L15.0772 25.9757C15.215 26.1136 15.3793 26.2089 15.5654 26.259C16.0976 26.4027 16.5165 26.8233 16.6588 27.3567C16.8021 27.8931 16.6475 28.4699 16.2553 28.862L16.2546 28.8627L13.9735 31.1439C13.9582 31.1592 13.9582 31.1841 13.9735 31.1995L16.2579 33.4838C16.6511 33.8772 16.8053 34.4552 16.6606 34.9925C16.5167 35.5269 16.0957 35.9469 15.562 36.0885C15.3742 36.1382 15.2085 36.234 15.0694 36.373L15.0076 36.4351C14.7993 36.6432 14.685 36.9192 14.685 37.2127C14.685 37.5063 14.7993 37.7823 15.0068 37.9898C15.4354 38.4184 16.1326 38.4181 16.5611 37.9898L16.623 37.9277C16.7607 37.7901 16.8589 37.6198 16.9082 37.4346C17.0499 36.9007 17.4701 36.4798 18.0045 36.3359C18.1378 36.3 18.2735 36.2825 18.4083 36.2825C18.817 36.2825 19.2172 36.4432 19.5128 36.7389L21.7995 39.0256C21.8014 39.0275 21.8035 39.0286 21.8058 39.0294C21.8074 39.03 21.8091 39.0304 21.8108 39.0308L21.8154 39.0321L21.8299 39.0361C21.839 39.0355 21.8482 39.0326 21.8551 39.0256L24.1369 36.7438C24.5291 36.3515 25.1057 36.1967 25.6424 36.3402C26.176 36.4827 26.5963 36.9017 26.7398 37.4337C26.7899 37.6198 26.8852 37.784 27.023 37.9218L27.0859 37.9845C27.5143 38.413 28.2114 38.4128 28.64 37.9845C29.0684 37.5561 29.0684 36.8589 28.6399 36.4304L28.5773 36.3678C28.4394 36.2299 28.2752 36.1344 28.089 36.0843C27.5572 35.9409 27.1381 35.5204 26.9957 34.9869C26.8523 34.4505 27.007 33.8736 27.3992 33.4813ZM39.0263 21.8541L37.2813 23.599C37.1451 23.366 36.9787 23.1501 36.7864 22.9577L36.7238 22.895C35.488 21.6592 33.4775 21.6593 32.2418 22.895C31.0061 24.1309 31.0061 26.1414 32.2418 27.3772L32.3044 27.4399C32.4968 27.6322 32.7128 27.7985 32.9457 27.9348L31.2006 29.6799C31.1853 29.6952 31.1603 29.6952 31.145 29.6799L28.9135 27.4484C28.5288 27.0638 27.9828 26.9085 27.4525 27.0337C26.9255 27.1581 26.5089 27.5382 26.3375 28.0508C26.2837 28.2122 26.1946 28.3558 26.0726 28.4777L26.01 28.5404C25.5816 28.9689 24.8844 28.9687 24.4559 28.5405C24.0275 28.1119 24.0275 27.4147 24.4559 26.9862L24.5186 26.9236C24.6406 26.8016 24.7842 26.7124 24.9456 26.6585C25.4581 26.4874 25.8383 26.0704 25.9625 25.5434C26.0875 25.0133 25.9323 24.4671 25.5476 24.0825L23.3189 21.8537C23.3036 21.8384 23.3036 21.8135 23.3189 21.7982L25.6007 19.5163C25.9929 19.124 26.1476 18.5471 26.0042 18.0107C25.8618 17.4773 25.4428 17.0568 24.9109 16.9133C24.7249 16.8632 24.5605 16.7677 24.4226 16.6299L24.36 16.5672C23.9315 16.1388 23.9315 15.4416 24.3599 15.0131C24.7884 14.5847 25.4855 14.5845 25.9141 15.0131L25.9767 15.0757C26.1146 15.2136 26.21 15.3779 26.2601 15.5639C26.4036 16.0958 26.824 16.5148 27.3574 16.6573C27.8938 16.8007 28.4706 16.6461 28.863 16.2539L31.1448 13.972C31.1601 13.9567 31.1851 13.9567 31.2004 13.972L33.4291 16.2008C33.8141 16.5855 34.3601 16.7406 34.8903 16.6156C35.4174 16.4912 35.8341 16.111 36.0051 15.5986C36.059 15.4372 36.1481 15.2936 36.2696 15.1722L36.3328 15.1089C36.5404 14.9014 36.8163 14.7871 37.1098 14.7871C37.4034 14.7871 37.6793 14.9014 37.8869 15.1091C38.0944 15.3166 38.2087 15.5926 38.2087 15.8862C38.2087 16.1796 38.0944 16.4556 37.8869 16.6632L37.8244 16.7257C37.7022 16.8478 37.5585 16.9369 37.3971 16.9908C36.8847 17.1619 36.5045 17.5788 36.3802 18.1058C36.2552 18.6358 36.4102 19.182 36.795 19.567L39.0263 21.7984C39.0304 21.8025 39.0306 21.8082 39.0325 21.8134L39.0366 21.8291C39.0359 21.8381 39.0332 21.8471 39.0263 21.8541ZM39.3925 19.2364C39.4817 19.0825 39.5838 18.9336 39.6993 18.7912C39.7487 18.7295 44.8246 12.2878 40.7683 8.23133C40.1357 7.59862 39.3088 7.23786 38.4398 7.2155C37.5956 7.19604 36.8058 7.49966 36.2284 8.07709C35.6352 8.67015 35.3296 9.47688 35.3678 10.3485C35.4262 11.6765 34.7231 12.8641 33.6467 13.4903L34.3853 14.2289C34.5066 14.0411 34.6479 13.8658 34.8062 13.7075L34.8694 13.6444C35.4674 13.0464 36.2632 12.7166 37.1098 12.7166C37.9563 12.7166 38.7523 13.0464 39.3508 13.6451C40.5865 14.8808 40.5865 16.8913 39.3508 18.1272L39.2882 18.1898C39.1298 18.3481 38.9544 18.4893 38.7668 18.6106L39.3925 19.2364Z" fill="#20037D"/>
<path d="M12.6932 11.2116L8.78835 7.30673C8.37918 6.89776 7.71608 6.89776 7.3068 7.30673C6.89773 7.7158 6.89773 8.37911 7.3068 8.78829L11.2118 12.6932C11.4163 12.8977 11.6844 13 11.9525 13C12.2205 13 12.4886 12.8977 12.6932 12.6932C13.1023 12.2841 13.1023 11.6208 12.6932 11.2116Z" fill="#20037D"/>
<path d="M15.7069 14.293C15.521 14.107 15.263 14 15 14C14.7369 14 14.479 14.1069 14.293 14.293C14.107 14.4791 14 14.737 14 15C14 15.264 14.1069 15.521 14.293 15.7069C14.4791 15.8939 14.737 16 15 16C15.263 16 15.521 15.8939 15.7069 15.7069C15.8929 15.521 16 15.263 16 15C16 14.737 15.893 14.48 15.7069 14.293Z" fill="#20037D"/>
<path d="M9.9994 17C9.9993 17 9.9991 17 9.999 17L7.0002 17.0013C6.44757 17.0015 5.9998 17.4491 6 18.001C6.0002 18.5528 6.44817 19 7.0006 19C7.0007 19 7.0009 19 7.001 19L9.9998 18.9987C10.5524 18.9985 11.0002 18.5509 11 17.999C10.9998 17.4472 10.5518 17 9.9994 17Z" fill="#20037D"/>
<path d="M18.9987 6.96321C18.9985 6.43121 18.5511 6 17.9994 6C17.9993 6 17.9991 6 17.999 6C17.4471 6.00019 16.9998 6.43179 17 6.96398L17.0013 10.0368C17.0015 10.5688 17.4489 11 18.0006 11C18.0007 11 18.0009 11 18.001 11C18.5529 10.9998 19.0002 10.5682 19 10.036L18.9987 6.96321Z" fill="#20037D"/>
<path d="M45.6932 44.2116L41.7884 40.3067C41.3792 39.8978 40.7161 39.8978 40.3068 40.3067C39.8977 40.7158 39.8977 41.3791 40.3068 41.7883L44.2117 45.6932C44.4163 45.8977 44.6844 46 44.9525 46C45.2205 46 45.4886 45.8977 45.6932 45.6932C46.1023 45.2841 46.1023 44.6208 45.6932 44.2116Z" fill="#20037D"/>
<path d="M38.707 37.2931C38.521 37.1071 38.263 37 38 37C37.737 37 37.479 37.107 37.293 37.2931C37.1071 37.479 37 37.737 37 38C37 38.263 37.107 38.521 37.293 38.707C37.479 38.893 37.737 39 38 39C38.263 39 38.521 38.8931 38.707 38.707C38.8929 38.521 39 38.263 39 38C39 37.737 38.893 37.479 38.707 37.2931Z" fill="#20037D"/>
<path d="M45.9994 34C45.9993 34 45.9991 34 45.999 34L43.0002 34.0013C42.4476 34.0015 41.9998 34.4491 42 35.001C42.0002 35.5528 42.4482 36 43.0006 36C43.0007 36 43.0009 36 43.001 36L45.9998 35.9987C46.5524 35.9985 47.0002 35.5509 47 34.999C46.9998 34.4472 46.5519 34 45.9994 34Z" fill="#20037D"/>
<path d="M35.9987 42.9632C35.9986 42.4311 35.5512 42 34.9994 42C34.9993 42 34.9991 42 34.999 42C34.4471 42.0002 33.9998 42.4318 34 42.964L34.0013 46.0368C34.0015 46.5688 34.4489 47 35.0006 47C35.0007 47 35.0009 47 35.001 47C35.5529 46.9998 36.0002 46.5682 36 46.036L35.9987 42.9632Z" fill="#20037D"/>
</svg>
