<svg width="55" height="46" viewBox="0 0 55 46" fill="none" xmlns="http://www.w3.org/2000/svg">
<path d="M50.5618 4.43961C50.2812 4.15913 49.8956 4 49.5008 4C49.1046 4 48.7189 4.15913 48.4382 4.43961C48.1592 4.71843 48 5.10404 48 5.5C48 5.89446 48.1592 6.28157 48.4382 6.56054C48.7188 6.83952 49.1044 7 49.5008 7C49.8954 7 50.2812 6.83967 50.5618 6.56054C50.8409 6.28157 51 5.89461 51 5.5C51 5.10404 50.8409 4.71843 50.5618 4.43961Z" fill="#20037D"/>
<path d="M25.5618 30.4396C25.2814 30.1591 24.8956 30 24.5008 30C24.1046 30 23.7188 30.1591 23.4382 30.4396C23.1592 30.7184 23 31.104 23 31.5C23 31.8945 23.1592 32.2814 23.4382 32.5605C23.7188 32.8395 24.1044 33 24.5008 33C24.8954 33 25.2812 32.8397 25.5618 32.5605C25.8409 32.2816 26 31.8946 26 31.5C26.0001 31.104 25.8411 30.7184 25.5618 30.4396Z" fill="#20037D"/>
<path fill-rule="evenodd" clip-rule="evenodd" d="M51.3849 8.0331C51.9004 7.73795 52.5566 7.91937 52.8498 8.43853C56.5175 14.9298 55.4109 23.1554 50.1578 28.4412L48.0745 30.5379C47.9876 30.6253 47.8893 30.6935 47.7848 30.7448C47.5875 31.2266 47.2951 31.6781 46.9068 32.0689C46.1422 32.8385 45.1255 33.2623 44.0442 33.2623C43.9895 33.2623 43.9352 33.2605 43.8808 33.2583C43.924 34.3552 43.5312 35.4664 42.7009 36.302C41.9363 37.0716 40.9196 37.4954 39.8383 37.4954C39.7836 37.4954 39.7293 37.4936 39.6749 37.4914C39.7181 38.5883 39.3253 39.6995 38.495 40.5352C37.7058 41.3296 36.6689 41.7267 35.6322 41.7267C35.5646 41.7267 35.497 41.7247 35.4295 41.7214C35.4843 42.8317 35.0916 43.9605 34.2509 44.8066C33.4862 45.5762 32.4696 46 31.3883 46C30.307 46 29.2903 45.5762 28.5257 44.8065L26.4977 42.7657L24.9963 44.2769C24.2317 45.0464 23.2151 45.4702 22.1337 45.4702C21.0525 45.4702 20.0358 45.0464 19.2711 44.2769C18.4404 43.4407 18.0475 42.3287 18.0912 41.2312C18.0367 41.2334 17.9822 41.2351 17.9278 41.2351C16.8911 41.2351 15.8545 40.838 15.0652 40.0437C14.3005 39.2741 13.8794 38.2509 13.8794 37.1626C13.8794 37.1076 13.8812 37.0529 13.8833 36.9982C13.8295 37.0004 13.7756 37.0021 13.7218 37.0021C12.685 37.0022 11.6486 36.6051 10.8592 35.8107C10.0946 35.0411 9.67346 34.0179 9.67346 32.9296C9.67346 32.8746 9.67529 32.8199 9.67744 32.7652C9.62362 32.7674 9.56969 32.7691 9.51587 32.7691C8.47914 32.7691 7.44274 32.3721 6.65329 31.5777C5.94398 30.8639 5.55458 29.9488 5.48271 29.0134C5.40011 28.9664 5.3219 28.9084 5.25143 28.8376L4.84656 28.4301C1.72122 25.2846 0 21.1025 0 16.654C0 12.2057 1.72112 8.02326 4.84656 4.87779C7.972 1.73231 12.1273 0 16.5473 0C20.6272 0 24.4807 1.47695 27.5078 4.17775C29.9718 1.98173 32.9778 0.597763 36.2619 0.157631C39.7712 -0.312774 43.3995 0.375156 46.479 2.09406C46.9979 2.3837 47.1852 3.0419 46.8975 3.56409C46.6097 4.08639 45.9557 4.27462 45.4368 3.9852C39.8536 0.868265 32.7967 1.86875 28.2765 6.4182L20.8798 13.8624C19.9177 14.8307 19.9177 16.4062 20.8798 17.3745C21.8419 18.3429 23.4074 18.3429 24.3694 17.3745L27.6093 14.1138C27.8109 13.9111 28.0841 13.7971 28.369 13.7971H32.6011C34.0076 13.7971 35.3298 13.2458 36.3244 12.2449L38.4415 10.1141C38.8612 9.6919 39.5413 9.6919 39.9609 10.1141C40.3804 10.5363 40.3804 11.221 39.9609 11.6431L37.8438 13.774C37.2583 14.3633 36.5913 14.8402 35.8694 15.1976L46.9077 26.3069C47.3231 26.7249 47.6279 27.2123 47.8247 27.732L48.6393 26.9122C53.2099 22.3123 54.1733 15.1551 50.9822 9.50745C50.6888 8.9884 50.8692 8.32825 51.3849 8.0331ZM8.17256 30.0485C8.53146 30.4097 9.00852 30.6085 9.51598 30.6085C10.0236 30.6085 10.5005 30.4096 10.8593 30.0486L12.7106 28.1853C13.4514 27.4398 13.4514 26.2269 12.7106 25.4813C12.3518 25.1201 11.8746 24.9213 11.3673 24.9213C10.8598 24.9213 10.3827 25.1201 10.0239 25.4813L8.17256 27.3446C7.81366 27.7057 7.61612 28.1859 7.61612 28.6965C7.61612 29.2073 7.81377 29.6874 8.17256 30.0485ZM12.3788 34.2817C12.0199 33.9206 11.8223 33.4404 11.8223 32.9297C11.8223 32.419 12.0199 31.9389 12.3788 31.5778L14.2302 29.7144V29.7143C14.589 29.3532 15.066 29.1543 15.5735 29.1543C16.0809 29.1543 16.558 29.3531 16.9168 29.7143C17.6576 30.4599 17.6576 31.6728 16.9168 32.4183L15.0655 34.2816C14.3246 35.0271 13.1191 35.0271 12.3788 34.2817ZM16.0282 37.1627C16.0282 37.6734 16.2258 38.1536 16.5847 38.5147C17.3255 39.2603 18.5306 39.2603 19.2713 38.5147L21.1227 36.6514C21.8635 35.9059 21.8635 34.693 21.1227 33.9473C20.7639 33.5861 20.2869 33.3873 19.7794 33.3873C19.2719 33.3873 18.7949 33.5862 18.4361 33.9473V33.9474L16.5847 35.8108C16.2258 36.1719 16.0282 36.652 16.0282 37.1627ZM25.3287 40.8846L23.4773 42.748C23.1185 43.1091 22.6415 43.3081 22.134 43.3081C21.6266 43.3081 21.1495 43.1092 20.7907 42.748C20.0499 42.0024 20.0499 40.7894 20.7907 40.044L22.6421 38.1806V38.1805C23.0009 37.8194 23.4779 37.6205 23.9854 37.6205C24.4928 37.6205 24.9699 37.8193 25.3287 38.1805C25.6876 38.5416 25.8852 39.0219 25.8852 39.5325C25.8853 40.0434 25.6876 40.5235 25.3287 40.8846ZM44.045 31.0999C44.5523 31.0999 45.0295 30.9011 45.3883 30.5399C46.129 29.7945 46.129 28.5815 45.3889 27.8356L33.5292 15.8997C33.2237 15.9379 32.9144 15.9594 32.6017 15.9594H28.8148L25.8895 18.9036C24.9895 19.8093 23.8073 20.2621 22.6252 20.2621C21.4432 20.2621 20.261 19.8092 19.361 18.9036C18.4892 18.026 18.009 16.8593 18.009 15.6183C18.009 14.3774 18.4892 13.2107 19.361 12.3331L25.9628 5.68875C23.348 3.40733 20.043 2.16228 16.5479 2.16228C12.702 2.16228 9.08597 3.66972 6.36648 6.40674C3.64676 9.14376 2.14909 12.783 2.14909 16.6538C2.14909 20.3753 3.53419 23.8822 6.05764 26.5798C6.22221 26.3075 6.42019 26.0503 6.65372 25.8153L8.50503 23.9521C10.0835 22.3635 12.6521 22.3634 14.2305 23.9521C15.0608 24.7877 15.4536 25.8989 15.4104 26.9958C15.4648 26.9936 15.5192 26.9918 15.5738 26.9918C16.655 26.9918 17.6717 27.4156 18.4364 28.1852C19.2667 29.0208 19.6595 30.132 19.6163 31.2289C19.6707 31.2267 19.725 31.2249 19.7797 31.2249C20.8609 31.2249 21.8776 31.6487 22.6423 32.4183C23.4726 33.2539 23.8653 34.3651 23.8222 35.462C23.8766 35.4598 23.9309 35.458 23.9856 35.458C25.0668 35.458 26.0835 35.8818 26.8482 36.6514C27.6128 37.4209 28.0339 38.4441 28.0339 39.5324C28.0339 40.0373 27.9422 40.5278 27.7687 40.9859L30.0456 43.2774C30.4044 43.6386 30.8815 43.8374 31.3889 43.8374C31.8963 43.8374 32.3735 43.6386 32.7322 43.2774C33.473 42.5319 33.473 41.319 32.7322 40.5733L26.7486 34.5514C26.3291 34.1291 26.3291 33.4444 26.7486 33.0222C27.1683 32.6001 27.8484 32.6001 28.268 33.0222L29.5434 34.3058C29.6424 34.3562 29.7353 34.4224 29.818 34.5055L34.2898 39.0061C35.0302 39.7516 36.2356 39.7516 36.9765 39.0061C37.7172 38.2606 37.7172 37.0476 36.9764 36.3019L32.5046 31.8016L32.5037 31.8005L28.2985 27.5684C27.879 27.1461 27.879 26.4614 28.2985 26.0392C28.7182 25.6171 29.3983 25.6171 29.8179 26.0392L38.4957 34.7728C38.8544 35.134 39.3315 35.3328 39.839 35.3328C40.3463 35.3328 40.8235 35.134 41.1823 34.7728C41.9231 34.0273 41.9231 32.8144 41.1823 32.0687L32.5045 23.3353C32.085 22.9131 32.085 22.2284 32.5045 21.8062C32.9242 21.384 33.6043 21.384 34.0239 21.8062L38.2295 26.0389L38.23 26.0394L42.7017 30.5399C43.0604 30.9011 43.5375 31.0999 44.045 31.0999Z" fill="#20037D"/>
</svg>
