<svg width="88" height="74" viewBox="0 0 88 74" fill="none" xmlns="http://www.w3.org/2000/svg">
<path d="M81.2697 6.73268C80.802 6.26522 80.1593 6 79.5013 6C78.841 6 78.1982 6.26522 77.7303 6.73268C77.2654 7.19738 77 7.84007 77 8.5C77 9.15743 77.2654 9.80262 77.7303 10.2676C78.198 10.7325 78.8407 11 79.5013 11C80.159 11 80.802 10.7328 81.2697 10.2676C81.7349 9.80262 82 9.15768 82 8.5C82 7.84007 81.7349 7.19738 81.2697 6.73268Z" fill="#959595"/>
<path d="M40.2697 49.7327C39.8023 49.2652 39.1593 49 38.5013 49C37.841 49 37.198 49.2652 36.7303 49.7327C36.2654 50.1974 36 50.8401 36 51.5C36 52.1574 36.2654 52.8024 36.7303 53.2676C37.198 53.7325 37.8407 54 38.5013 54C39.159 54 39.802 53.7328 40.2697 53.2676C40.7349 52.8026 41 52.1577 41 51.5C41.0002 50.8401 40.7351 50.1974 40.2697 49.7327Z" fill="#959595"/>
<path fill-rule="evenodd" clip-rule="evenodd" d="M82.2158 12.9228C83.0407 12.448 84.0905 12.7398 84.5597 13.575C90.428 24.0175 88.6574 37.2499 80.2525 45.7532L76.9192 49.1262C76.7801 49.2668 76.6229 49.3765 76.4556 49.459C76.1401 50.2341 75.6722 50.9604 75.0509 51.5892C73.8275 52.8272 72.2008 53.5089 70.4707 53.5089C70.3833 53.5089 70.2963 53.506 70.2093 53.5025C70.2784 55.2671 69.6499 57.0547 68.3214 58.3989C67.098 59.6369 65.4714 60.3187 63.7413 60.3187C63.6538 60.3187 63.5669 60.3158 63.4799 60.3123C63.549 62.0769 62.9204 63.8645 61.592 65.2087C60.3293 66.4867 58.6703 67.1255 57.0115 67.1255C56.9034 67.1255 56.7952 67.1224 56.6872 67.117C56.7749 68.9032 56.1465 70.7191 54.8014 72.0802C53.578 73.3182 51.9514 74 50.2213 74C48.4912 74 46.8645 73.3182 45.6411 72.0801L42.3963 68.7969L39.994 71.228C38.7708 72.466 37.1441 73.1478 35.4139 73.1478C33.6839 73.1478 32.0573 72.466 30.8337 71.228C29.5046 69.8829 28.8761 68.0939 28.9459 66.3284C28.8587 66.3319 28.7716 66.3347 28.6844 66.3347C27.0258 66.3347 25.3672 65.6959 24.1043 64.4181C22.8807 63.1801 22.207 61.5341 22.207 59.7834C22.207 59.6948 22.2099 59.6068 22.2133 59.5188C22.1272 59.5223 22.0409 59.5251 21.9548 59.5251C20.2961 59.5253 18.6378 58.8865 17.3747 57.6085C16.1513 56.3705 15.4775 54.7245 15.4775 52.9738C15.4775 52.8852 15.4805 52.7972 15.4839 52.7092C15.3978 52.7127 15.3115 52.7155 15.2254 52.7155C13.5666 52.7155 11.9084 52.0769 10.6453 50.7989C9.51037 49.6506 8.88733 48.1785 8.77234 46.6738C8.64017 46.5981 8.51504 46.5049 8.40229 46.391L7.7545 45.7355C2.75396 40.6752 0 33.9475 0 26.7913C0 19.6352 2.75379 12.907 7.7545 7.84688C12.7552 2.78677 19.4037 0 26.4757 0C33.0035 0 39.1692 2.37596 44.0124 6.72073C47.9549 3.18801 52.7645 0.961619 58.0191 0.25358C63.6339 -0.503159 69.4392 0.603512 74.3665 3.36871C75.1966 3.83465 75.4964 4.89349 75.0359 5.73354C74.5755 6.57376 73.5291 6.87656 72.6989 6.41097C63.7657 1.39677 52.4747 3.00626 45.2424 10.3249L33.4077 22.3004C31.8683 23.858 31.8683 26.3926 33.4077 27.9503C34.9471 29.5081 37.4518 29.5081 38.9911 27.9503L44.1749 22.7048C44.4975 22.3787 44.9346 22.1953 45.3904 22.1953H52.1617C54.4121 22.1953 56.5277 21.3085 58.1191 19.6983L61.5064 16.2705C62.1779 15.5913 63.2661 15.5913 63.9374 16.2705C64.6086 16.9497 64.6086 18.0511 63.9374 18.7303L60.5501 22.1581C59.6132 23.1062 58.546 23.8733 57.391 24.4483L75.0523 42.3198C75.7169 42.9922 76.2047 43.7764 76.5196 44.6124L77.8229 43.2936C85.1358 35.8937 86.6772 24.38 81.5715 15.2946C81.1021 14.4596 81.3907 13.3976 82.2158 12.9228ZM13.0761 48.3389C13.6503 48.92 14.4136 49.2398 15.2256 49.2398C16.0377 49.2398 16.8008 48.9198 17.3749 48.3391L20.337 45.3415C21.5222 44.1423 21.5222 42.1911 20.337 40.9917C19.7629 40.4106 18.9994 40.0908 18.1877 40.0908C17.3757 40.0908 16.6123 40.4106 16.0382 40.9917L13.0761 43.9891C12.5019 44.57 12.1858 45.3426 12.1858 46.164C12.1858 46.9856 12.502 47.758 13.0761 48.3389ZM19.806 55.1488C19.2318 54.5679 18.9157 53.7954 18.9157 52.9739C18.9157 52.1523 19.2318 51.3799 19.806 50.799L22.7683 47.8015V47.8013C23.3424 47.2204 24.1057 46.9004 24.9176 46.9004C25.7294 46.9004 26.4929 47.2202 27.0669 47.8013C28.2522 49.0007 28.2522 50.9519 27.0669 52.1511L24.1048 55.1487C22.9194 56.3479 20.9906 56.3479 19.806 55.1488ZM25.6452 59.7835C25.6452 60.605 25.9612 61.3776 26.5355 61.9585C27.7207 63.1578 29.649 63.1578 30.8341 61.9585L33.7963 58.9609C34.9816 57.7617 34.9816 55.8105 33.7963 54.6109C33.2223 54.0298 32.459 53.71 31.647 53.71C30.8351 53.71 30.0718 54.03 29.4977 54.6109V54.6111L26.5355 57.6086C25.9612 58.1895 25.6452 58.9619 25.6452 59.7835ZM40.526 65.7708L37.5637 68.7686C36.9896 69.3495 36.2263 69.6695 35.4144 69.6695C34.6026 69.6695 33.8391 69.3496 33.2651 68.7686C32.0798 67.569 32.0798 65.6178 33.2651 64.4186L36.2274 61.421V61.4209C36.8014 60.84 37.5647 60.5199 38.3767 60.5199C39.1884 60.5199 39.9519 60.8398 40.526 61.4209C41.1002 62.0018 41.4163 62.7743 41.4163 63.5958C41.4164 64.4177 41.1002 65.1899 40.526 65.7708ZM70.472 50.0303C71.2837 50.0303 72.0472 49.7105 72.6213 49.1294C73.8063 47.9304 73.8063 45.9789 72.6223 44.779L53.6467 25.5778C53.1579 25.6392 52.6631 25.6738 52.1628 25.6738H46.1036L41.4231 30.4101C39.9832 31.8672 38.0917 32.5956 36.2004 32.5956C34.3091 32.5956 32.4176 31.867 30.9776 30.4101C29.5827 28.9983 28.8144 27.1215 28.8144 25.1251C28.8144 23.1288 29.5827 21.252 30.9776 19.8402L41.5405 9.15147C37.3567 5.48135 32.0688 3.47846 26.4767 3.47846C20.3232 3.47846 14.5376 5.90346 10.1864 10.3065C5.83482 14.7095 3.43854 20.5639 3.43854 26.7909C3.43854 32.7777 5.6547 38.4192 9.69222 42.7588C9.95553 42.3208 10.2723 41.9071 10.646 41.529L13.6081 38.5316C16.1336 35.9761 20.2433 35.9759 22.7688 38.5316C24.0973 39.8758 24.7258 41.6634 24.6567 43.428C24.7437 43.4245 24.8306 43.4216 24.9181 43.4216C26.6481 43.4216 28.2747 44.1034 29.4983 45.3413C30.8267 46.6856 31.4552 48.4732 31.3861 50.2378C31.4731 50.2343 31.5601 50.2314 31.6476 50.2314C33.3775 50.2314 35.0041 50.9131 36.2277 52.1511C37.5561 53.4954 38.1845 55.2829 38.1156 57.0476C38.2025 57.0441 38.2895 57.0411 38.377 57.0411C40.1069 57.0411 41.7336 57.7229 42.9571 58.9609C44.1805 60.1989 44.8543 61.8449 44.8543 63.5956C44.8543 64.4078 44.7075 65.1969 44.4299 65.9338L48.073 69.6201C48.6471 70.2012 49.4104 70.521 50.2223 70.521C51.0341 70.521 51.7975 70.2012 52.3716 69.6201C53.5568 68.4209 53.5568 66.4697 52.3716 65.2701L42.7978 55.5826C42.1266 54.9033 42.1266 53.8018 42.7978 53.1227C43.4693 52.4437 44.5575 52.4437 45.2288 53.1227L47.2695 55.1876C47.4278 55.2687 47.5765 55.3751 47.7088 55.5089L54.8636 62.7489C56.0484 63.9483 57.977 63.9483 59.1624 62.7489C60.3475 61.5497 60.3475 59.5983 59.1622 58.3988L52.0074 51.1591L52.0058 51.1573L45.2776 44.3491C44.6064 43.6698 44.6064 42.5683 45.2776 41.8891C45.9491 41.2101 47.0373 41.2101 47.7086 41.8891L61.593 55.9388C62.1671 56.5199 62.9304 56.8397 63.7424 56.8397C64.5541 56.8397 65.3176 56.5199 65.8916 55.9388C67.0769 54.7396 67.0769 52.7884 65.8916 51.5888L52.0072 37.5393C51.336 36.8602 51.336 35.7587 52.0072 35.0795C52.6787 34.4004 53.7669 34.4004 54.4382 35.0795L61.1671 41.8886L61.168 41.8895L68.3227 49.1294C68.8967 49.7105 69.66 50.0303 70.472 50.0303Z" fill="#959595"/>
</svg>
