<svg width="63" height="53" viewBox="0 0 63 53" fill="none" xmlns="http://www.w3.org/2000/svg">
<path fill-rule="evenodd" clip-rule="evenodd" d="M26.0507 22.2939L25.2628 21.1397C25.2555 21.129 25.2484 21.1181 25.2418 21.1069C24.9966 20.7132 24.9344 20.248 25.0712 19.8302C25.2117 19.4011 25.5377 19.0661 25.9894 18.8872C26.0003 18.8827 26.0114 18.8787 26.0226 18.8748L27.2367 18.4472L28.9384 17.8559L30.8684 15.5517C30.8782 15.5398 30.8884 15.5283 30.8989 15.5171C31.1724 15.2206 31.5344 15.0383 31.9179 15.0037C31.9731 14.9986 32.029 14.9989 32.0845 15.0038C32.4741 15.0398 32.8373 15.2256 33.1075 15.5271C33.1143 15.5347 33.1209 15.5424 33.1274 15.55L33.1275 15.5501L35.0594 17.8561L37.9773 18.8744C37.9898 18.8788 38.0019 18.8833 38.0141 18.8881C38.4644 19.0682 38.7895 19.4039 38.9294 19.8335C39.0653 20.2508 39.0031 20.7149 38.759 21.1069C38.752 21.1179 38.7451 21.1288 38.7377 21.1395L38.0321 22.1727L37.0405 23.6106L36.9755 25.3105L36.94 26.5347C36.9395 26.5524 36.9385 26.5699 36.9369 26.5874C36.8977 27.0444 36.6843 27.4398 36.3359 27.7002C35.9841 27.9635 35.5202 28.0596 35.0642 27.9635C35.0543 27.9614 35.0446 27.9594 35.0349 27.9569L32.0003 27.2187L28.9617 27.957C28.9521 27.9594 28.9426 27.9614 28.933 27.9635C28.817 27.9879 28.7004 27.9999 28.5855 28C28.2462 28 27.9204 27.8955 27.6573 27.6971C27.3095 27.4345 27.0984 27.0377 27.063 26.5795C27.0619 26.5646 27.0611 26.5498 27.0606 26.5349L27.0247 25.3022L26.9571 23.6109L26.0528 22.2967L26.0507 22.2939ZM30.1826 19.2465C30.0756 19.374 29.9364 19.4701 29.7796 19.5246L27.0465 20.4778L27.5691 21.2436L28.6247 22.7778C28.7242 22.9223 28.7806 23.0922 28.7877 23.2677L28.8664 25.2379L28.8905 26.0674L31.784 25.3648C31.8551 25.3476 31.9275 25.339 32 25.339C32.0726 25.339 32.145 25.3476 32.2161 25.3648L35.1095 26.068L35.1334 25.2481L35.209 23.2694C35.2156 23.0929 35.2724 22.9221 35.3724 22.777L36.9535 20.4782L36.1519 20.1968L34.217 19.5245C34.0599 19.4699 33.9204 19.3735 33.8132 19.2455L31.9989 17.0797L30.1826 19.2465Z" fill="#20037D"/>
<path fill-rule="evenodd" clip-rule="evenodd" d="M60.6125 46.0111L62.8782 50.9162C63.0695 51.3314 63.0341 51.7963 62.7818 52.1926C62.4743 52.6756 61.8677 53 61.2726 53H44.9752C43.2257 53 41.8023 51.5819 41.8023 49.8388V48.2103H34.6303C34.1158 48.2103 33.6987 47.7916 33.6987 47.2749C33.6987 46.7583 34.1158 46.3396 34.6303 46.3396H48.8313C49.2382 46.3396 49.4653 45.8233 49.5843 45.3901L52.6618 34.1536C52.6651 34.142 52.6743 34.1087 52.6126 34.0275C52.472 33.8422 52.1645 33.6971 51.9126 33.6971H50.381H12.6189H11.0909C10.8329 33.6971 10.5303 33.8394 10.3871 34.0282C10.3259 34.1089 10.3349 34.142 10.3379 34.1529L10.3379 34.1529L13.4194 45.3905C13.537 45.8251 13.7614 46.3396 14.1687 46.3396H30.2236C30.7381 46.3396 31.1552 46.7583 31.1552 47.2749C31.1552 47.7916 30.7381 48.2103 30.2236 48.2103H21.1978V49.8388C21.1978 51.582 19.7744 53 18.0249 53H1.72745C1.13227 53 0.52577 52.6756 0.218276 52.1926C-0.0339697 51.7964 -0.0694072 51.3314 0.121439 50.9172L2.38759 46.0108C2.4266 45.9272 2.4688 45.8365 2.49907 45.7677C2.48197 45.7272 2.46179 45.6807 2.44272 45.637L2.44219 45.6358L2.4421 45.6356C2.39313 45.5228 2.33403 45.3867 2.26553 45.2172L0.103597 39.8549C-0.0653466 39.4377 -0.01379 38.9762 0.245347 38.5897C0.559978 38.1203 1.14174 37.8171 1.72745 37.8171H9.41037L8.54178 34.6496C8.37591 34.0455 8.50487 33.4221 8.90501 32.8945C9.29397 32.382 9.91142 32.0137 10.5655 31.8811C10.1238 31.1761 9.69178 30.0783 9.82664 28.7953L10.0651 25.7404L8.88348 21.9205C8.67319 21.2332 8.54055 19.5485 9.53231 18.0613L11.172 15.4648L11.9101 11.5344C12.0407 10.8329 12.7052 9.28022 14.283 8.42061L16.9469 6.87941L19.4365 3.74242C19.878 3.18376 21.1878 2.11808 22.9833 2.08509L26.065 1.9529L29.7349 0.323497C30.3888 0.0336659 32.0451 -0.301876 33.6453 0.498433L36.4364 1.80638L40.4465 2.06125C41.1649 2.10918 42.79 2.58235 43.8303 4.03126L45.6883 6.47555L49.1216 8.5591C49.7325 8.9275 50.9542 10.0949 51.2009 11.8724L51.705 14.897L53.7707 18.3217C54.1402 18.9347 54.6761 20.5379 54.067 22.2281L53.0995 25.1379L53.3317 29.1257C53.3627 29.6895 53.1967 30.8385 52.4848 31.8914C53.1197 32.0317 53.7157 32.3943 54.095 32.8942C54.4953 33.4219 54.6243 34.0456 54.4583 34.6502L53.5908 37.8175H61.2726C61.8584 37.8175 62.4401 38.1208 62.7547 38.5901C63.0139 38.9764 63.0654 39.438 62.8961 39.8563L60.7348 45.2167C60.6658 45.3877 60.6065 45.5241 60.5574 45.6372C60.5383 45.681 60.5181 45.7274 60.501 45.7679C60.5313 45.8367 60.5735 45.9274 60.6125 46.0111ZM19.3346 48.2102H14.1687C12.9502 48.2102 12.0219 47.3624 11.6221 45.8839L9.92335 39.688H2.04626L3.99225 44.5147C4.05352 44.6661 4.10656 44.788 4.15048 44.8889C4.50597 45.7068 4.44973 45.9998 4.07543 46.8035L3.98179 47.0052L2.07715 51.1294H18.0249C18.747 51.1294 19.3346 50.5505 19.3346 49.8388V48.2102ZM45.1031 31.8266C46.8829 29.1776 47.8475 26.0494 47.8475 22.8372C47.8475 13.9045 40.5343 6.63727 31.5454 6.63727C26.6988 6.63727 22.1356 8.76109 19.0255 12.4642C18.6939 12.859 18.744 13.4492 19.1372 13.7821C19.5306 14.1152 20.1184 14.0648 20.45 13.6699C23.2052 10.3894 27.2492 8.50783 31.5454 8.50783C39.5071 8.50783 45.9844 14.936 45.9844 22.8372C45.9844 26.1102 44.8507 29.2855 42.7845 31.8266H20.3063C18.2424 29.2881 17.1099 26.1129 17.1099 22.8372C17.1099 20.6912 17.5737 18.6328 18.4884 16.7187C18.711 16.253 18.5153 15.6943 18.0515 15.4708C17.5877 15.2473 17.0312 15.4438 16.8086 15.9095C15.7723 18.0781 15.2468 20.4089 15.2468 22.8372C15.2468 26.0513 16.2102 29.1795 17.988 31.8266H13.0042L12.3684 31.1901C12.1066 30.9277 11.5696 30.0075 11.6807 28.9831C11.6817 28.9737 11.6826 28.9644 11.6833 28.955L11.9368 25.7078C11.946 25.5895 11.9328 25.4706 11.8978 25.3573L10.6638 21.3686C10.551 20.9998 10.5056 19.9588 11.0854 19.0951C11.088 19.0911 11.0907 19.0871 11.0933 19.0831C11.0955 19.0798 11.0976 19.0765 11.0997 19.0732L12.8414 16.315C12.9045 16.215 12.9482 16.104 12.9701 15.9876L13.7416 11.8798C13.8093 11.5171 14.2652 10.5553 15.1795 10.0608C15.1873 10.0566 15.1952 10.0522 15.2028 10.0478L18.0307 8.41171C18.1319 8.35315 18.2213 8.27594 18.2941 8.18427L20.8951 4.90681C21.1253 4.61549 21.9812 3.97159 23.0259 3.9554C23.0342 3.95528 23.0427 3.95503 23.0511 3.95466L26.3208 3.81444C26.4371 3.8095 26.5513 3.78257 26.6577 3.7355L30.4883 2.03481C30.8301 1.88298 31.8926 1.70829 32.8225 2.17688C32.8302 2.18084 32.8382 2.18467 32.8462 2.1885L35.8082 3.5765C35.9136 3.62592 36.0274 3.65507 36.1434 3.66249L40.3263 3.92835C40.7164 3.95442 41.7184 4.28292 42.3244 5.13277C42.3298 5.14043 42.3355 5.14809 42.3413 5.15562L44.3147 7.75187C44.3856 7.84515 44.4734 7.92421 44.5733 7.98487L48.1604 10.1617C48.4771 10.3527 49.2184 11.1161 49.357 12.1397C49.3583 12.1493 49.3596 12.1586 49.3612 12.168L49.8971 15.3827C49.9165 15.4995 49.958 15.6115 50.019 15.7128L52.1771 19.2906C52.3676 19.6068 52.6663 20.627 52.3125 21.5996L52.3101 21.6064L52.304 21.6242L51.2757 24.7166C51.2382 24.8295 51.2225 24.9485 51.2293 25.0675L51.4718 29.2321C51.4921 29.6019 51.2789 30.6466 50.5131 31.3422C50.5068 31.3479 50.5005 31.3538 50.4945 31.3596L50.0077 31.8269H45.1031V31.8266ZM43.6654 49.8388C43.6654 50.5505 44.2529 51.1294 44.9751 51.1294V51.1293H60.9227L58.9245 46.8033C58.5502 45.9997 58.494 45.7067 58.8495 44.8888C58.8935 44.7879 58.9464 44.6659 59.008 44.5139L60.9538 39.6879H53.0783L51.3805 45.8868C50.9751 47.3636 50.046 48.2103 48.8313 48.2103H43.6654V49.8388Z" fill="#20037D"/>
</svg>
