<svg width="95" height="80" viewBox="0 0 95 80" fill="none" xmlns="http://www.w3.org/2000/svg">
<path fill-rule="evenodd" clip-rule="evenodd" d="M39.5761 33.2214L38.3942 31.4456C38.3832 31.4293 38.3726 31.4125 38.3628 31.3952C37.9949 30.7896 37.9016 30.0738 38.1068 29.4311C38.3175 28.7709 38.8066 28.2555 39.4841 27.9804C39.5005 27.9734 39.5171 27.9672 39.5339 27.9612L41.3551 27.3034L43.9075 26.3937L46.8025 22.8488C46.8173 22.8305 46.8327 22.8128 46.8484 22.7955C47.2586 22.3394 47.8016 22.059 48.3768 22.0057C48.4597 21.9978 48.5435 21.9984 48.6268 22.0059C49.2112 22.0613 49.756 22.3471 50.1613 22.8109C50.1715 22.8226 50.1813 22.8344 50.1912 22.8463L53.0891 26.3941L57.466 27.9606C57.4846 27.9674 57.5029 27.9743 57.5211 27.9817C58.1966 28.2587 58.6843 28.7752 58.8941 29.4362C59.098 30.0781 59.0047 30.7922 58.6385 31.3952C58.6281 31.4121 58.6177 31.4289 58.6065 31.4455L57.5482 33.035L56.0608 35.247L55.9633 37.8623L55.91 39.7458C55.9092 39.7729 55.9078 39.7998 55.9054 39.8267C55.8466 40.5299 55.5264 41.1381 55.0039 41.5388C54.4761 41.9439 53.7803 42.0917 53.0962 41.9439C53.0814 41.9407 53.0668 41.9375 53.0524 41.9337L48.5004 40.798L43.9426 41.9339C43.9282 41.9375 43.9139 41.9407 43.8995 41.9439C43.7255 41.9814 43.5506 41.9998 43.3783 42C42.8693 42 42.3805 41.8392 41.986 41.5339C41.4642 41.13 41.1477 40.5195 41.0945 39.8147C41.0929 39.7917 41.0916 39.7689 41.0909 39.7459L41.037 37.8495L40.9357 35.2476L39.5792 33.2257C39.5781 33.2244 39.5772 33.2229 39.5761 33.2214ZM45.7739 28.5331C45.6135 28.7293 45.4046 28.8771 45.1695 28.9609L41.0697 30.4275L41.8537 31.6055L43.4371 33.9658C43.5862 34.1882 43.6709 34.4496 43.6815 34.7196L43.7997 37.7506L43.8358 39.0268L48.176 37.9459C48.2826 37.9193 48.3913 37.9062 48.5001 37.9062C48.6089 37.9062 48.7175 37.9193 48.8241 37.9459L53.1643 39.0277L53.2001 37.7662L53.3135 34.7222C53.3233 34.4507 53.4086 34.1878 53.5587 33.9647L55.9302 30.428L54.7278 29.9951L51.8256 28.9607C51.5899 28.8767 51.3806 28.7285 51.2198 28.5316L48.4984 25.1996L45.7739 28.5331Z" fill="#959595"/>
<path fill-rule="evenodd" clip-rule="evenodd" d="M91.3998 69.4507L94.8163 76.8547C95.1048 77.4814 95.0514 78.1831 94.671 78.7814C94.2073 79.5103 93.2926 80 92.3953 80H67.8198C65.1817 80 63.0353 77.8594 63.0353 75.2284V72.7702H52.2203C51.4445 72.7702 50.8155 72.1382 50.8155 71.3584C50.8155 70.5785 51.4445 69.9465 52.2203 69.9465H73.6344C74.248 69.9465 74.5906 69.1672 74.77 68.5134L79.4107 51.5525C79.4157 51.535 79.4294 51.4849 79.3365 51.3623C79.1244 51.0826 78.6607 50.8635 78.2809 50.8635H75.9714H19.0286H16.7244C16.3353 50.8635 15.8791 51.0783 15.6631 51.3633C15.5708 51.4851 15.5844 51.5351 15.5889 51.5515L15.5889 51.5516L20.2355 68.514C20.4129 69.17 20.7514 69.9465 21.3655 69.9465H45.5753C46.3511 69.9465 46.9801 70.5785 46.9801 71.3584C46.9801 72.1382 46.3511 72.7702 45.5753 72.7702H31.9649V75.2284C31.9649 77.8596 29.8185 80 27.1804 80H2.60488C1.70739 80 0.792829 79.5103 0.329147 78.7814C-0.0512241 78.1833 -0.104662 77.4814 0.183122 76.8561L3.60034 69.4503C3.65916 69.3241 3.7228 69.1872 3.76844 69.0833C3.74265 69.0221 3.71222 68.952 3.68346 68.886L3.68268 68.8842L3.68263 68.8841C3.60876 68.7138 3.51961 68.5084 3.41628 68.2523L0.156217 60.1584C-0.0985385 59.5286 -0.0207944 58.832 0.369967 58.2487C0.844411 57.54 1.72168 57.0824 2.60488 57.0824H14.1902L12.8805 52.3013C12.6303 51.3894 12.8248 50.4484 13.4282 49.6521C14.0147 48.8784 14.9458 48.3225 15.9322 48.1224C15.266 47.0582 14.6146 45.4011 14.8179 43.4646L15.1775 38.8535L13.3957 33.0875C13.0786 32.0501 12.8786 29.5071 14.3741 27.2623L16.8467 23.343L17.9596 17.4104C18.1567 16.3516 19.1586 14.0079 21.5379 12.7104L25.5548 10.384L29.309 5.64893C29.9747 4.80567 31.9499 3.1971 34.6574 3.14731L39.3044 2.94778L44.8383 0.488297C45.8243 0.0508164 48.3219 -0.455662 50.735 0.752352L54.9437 2.72661L60.9907 3.11132C62.0741 3.18367 64.5246 3.89789 66.0933 6.08492L68.895 9.77442L74.0723 12.9194C74.9934 13.4755 76.8357 15.2375 77.2077 17.9206L77.9679 22.486L81.0828 27.6554C81.64 28.5807 82.4481 31.0006 81.5296 33.5519L80.0707 37.944L80.4208 43.9634C80.4676 44.8143 80.2173 46.5487 79.1437 48.1379C80.1011 48.3498 80.9999 48.8971 81.5718 49.6516C82.1755 50.4482 82.37 51.3896 82.1197 52.3022L80.8116 57.083H92.3953C93.2785 57.083 94.1557 57.5408 94.6302 58.2492C95.0209 58.8323 95.0987 59.529 94.8434 60.1604L91.5842 68.2516C91.4826 68.5037 91.3949 68.706 91.3219 68.8744L91.3167 68.8864C91.2879 68.9524 91.2575 69.0225 91.2317 69.0837C91.2773 69.1875 91.341 69.3244 91.3998 69.4507ZM29.1553 72.7702H21.3655C19.528 72.7702 18.1283 71.4904 17.5254 69.2588L14.9638 59.9065H3.08563L6.02005 67.192C6.11246 67.4205 6.19243 67.6045 6.25867 67.7569C6.79471 68.9914 6.70992 69.4337 6.14548 70.6467L6.00428 70.9513L3.1322 77.1765H27.1804C28.2693 77.1765 29.1553 76.3027 29.1553 75.2284V72.7702ZM68.0126 48.0402C70.6965 44.0417 72.151 39.3199 72.151 34.4712C72.151 20.988 61.1232 10.0185 47.5684 10.0185C40.2601 10.0185 33.3791 13.2243 28.6892 18.8138C28.1892 19.4098 28.2647 20.3006 28.8577 20.8032C29.4509 21.3059 30.3373 21.2299 30.8373 20.6339C34.9919 15.6821 41.0901 12.842 47.5684 12.842C59.5743 12.842 69.3416 22.5449 69.3416 34.4712C69.3416 39.4116 67.632 44.2045 64.5163 48.0402H30.6206C27.5084 44.2084 25.8006 39.4157 25.8006 34.4712C25.8006 31.2321 26.5 28.1249 27.8793 25.2358C28.215 24.5328 27.92 23.6895 27.2205 23.3522C26.5211 23.0148 25.6819 23.3113 25.3462 24.0144C23.7836 27.2876 22.9913 30.806 22.9913 34.4712C22.9913 39.3227 24.4439 44.0445 27.1247 48.0402H19.6095L18.6508 47.0795C18.2559 46.6834 17.4462 45.2943 17.6138 43.748C17.6145 43.741 17.6152 43.734 17.6158 43.727C17.6165 43.7199 17.6171 43.7128 17.6177 43.7057L17.9999 38.8042C18.0138 38.6256 17.9939 38.4462 17.9411 38.2752L16.0804 32.2545C15.9103 31.6979 15.8418 30.1264 16.7161 28.8227C16.7233 28.8117 16.7306 28.8009 16.7376 28.7897L19.364 24.6264C19.4592 24.4755 19.5251 24.3079 19.5581 24.1322L20.7215 17.9318C20.8235 17.3843 21.511 15.9325 22.8898 15.1861C22.8946 15.1835 22.8994 15.1808 22.9042 15.1782C22.9111 15.1743 22.9181 15.1704 22.9249 15.1665L27.1891 12.6969C27.3418 12.6085 27.4765 12.492 27.5863 12.3536L31.5084 7.4065C31.8556 6.96678 33.1463 5.99485 34.7215 5.97042C34.7342 5.97024 34.747 5.96986 34.7596 5.9693L39.6901 5.75765C39.8655 5.75019 40.0377 5.70954 40.1982 5.63849L45.9744 3.07141C46.4899 2.84223 48.0921 2.57855 49.4942 3.28586C49.5059 3.29183 49.518 3.29761 49.53 3.30339L53.9965 5.39849C54.1554 5.47308 54.327 5.51709 54.502 5.52828L60.8094 5.92958C61.3978 5.96893 62.9087 6.46478 63.8225 7.74757C63.8307 7.75913 63.8392 7.7707 63.848 7.78207L66.8238 11.7009C66.9306 11.8417 67.0631 11.9611 67.2138 12.0526L72.6228 15.3384C73.1004 15.6267 74.2182 16.779 74.4273 18.3241C74.4291 18.3385 74.4312 18.3527 74.4336 18.3668L75.2416 23.2192C75.271 23.3954 75.3335 23.5646 75.4255 23.7175L78.6798 29.1179C78.967 29.5951 79.4174 31.1351 78.8839 32.6032L78.8802 32.6139L78.8711 32.6404L77.3205 37.3081C77.2639 37.4786 77.2403 37.6581 77.2506 37.8377L77.6163 44.1239C77.6469 44.6821 77.3253 46.2589 76.1705 47.309C76.161 47.3176 76.1516 47.3265 76.1425 47.3353L75.4084 48.0406H68.0126V48.0402ZM65.8446 75.2284C65.8446 76.3027 66.7306 77.1765 67.8196 77.1765V77.1763H91.8676L88.8545 70.6466C88.29 69.4335 88.2052 68.9912 88.7413 67.7567C88.8077 67.6043 88.8875 67.4203 88.9803 67.1907L91.9145 59.9063H80.0388L77.4786 69.2631C76.8672 71.4922 75.4661 72.7702 73.6344 72.7702H65.8446V75.2284Z" fill="#959595"/>
</svg>
