<svg width="32" height="16" viewBox="0 0 32 16" fill="none" xmlns="http://www.w3.org/2000/svg">
<path d="M31.7885 7.48984L24.5159 0.252973C24.2547 -0.050584 23.7956 -0.0859711 23.4905 0.174052C23.1855 0.434013 23.1499 0.890873 23.4112 1.19443C23.4356 1.22273 23.4621 1.24916 23.4905 1.27335L29.5195 7.27995H0.727237C0.325619 7.27995 0 7.60396 0 8.00367C0 8.40338 0.325619 8.72733 0.727237 8.72733H29.5195L23.4905 14.7266C23.1855 14.9866 23.1499 15.4435 23.4112 15.747C23.6725 16.0506 24.1316 16.086 24.4366 15.8259C24.4651 15.8017 24.4916 15.7753 24.5159 15.747L31.7886 8.51016C32.0705 8.22799 32.0705 7.77213 31.7885 7.48984Z" fill="#FF0000"/>
</svg>
