<svg width="265" height="65" viewBox="0 0 265 65" fill="none" xmlns="http://www.w3.org/2000/svg">
<rect width="265" height="65" fill="#20037D"/>
<path d="M217.788 33.4898L210.516 26.253C210.255 25.9494 209.796 25.914 209.491 26.1741C209.185 26.434 209.15 26.8909 209.411 27.1944C209.436 27.2227 209.462 27.2492 209.491 27.2734L215.519 33.2799H186.727C186.326 33.2799 186 33.604 186 34.0037C186 34.4034 186.326 34.7273 186.727 34.7273H215.519L209.491 40.7266C209.185 40.9866 209.15 41.4435 209.411 41.747C209.673 42.0506 210.132 42.086 210.437 41.8259C210.465 41.8017 210.492 41.7753 210.516 41.747L217.789 34.5102C218.07 34.228 218.07 33.7721 217.788 33.4898Z" fill="white"/>
</svg>
