<svg width="52" height="53" viewBox="0 0 52 53" fill="none" xmlns="http://www.w3.org/2000/svg">
<path fill-rule="evenodd" clip-rule="evenodd" d="M0.692747 51.0245L0 49.478L15.6773 43.0354L12.7325 34.2738L0.606471 39.0839L0 37.4519L21.1339 28.9478L21.7403 26.0273C21.9133 25.2543 22.3464 24.6528 22.9528 24.3093L22.4331 23.0208L19.575 22.7628C17.5826 22.5913 15.5906 21.8183 13.945 20.6153L9.87397 20.1858C8.05498 19.9283 6.49609 18.7257 5.88962 17.0077C5.11017 14.7742 6.14971 12.1972 8.40178 11.1662L7.9687 10.0497V9.96372C7.44893 8.67521 8.14168 7.21515 9.5276 6.69967L27.8033 0.171138C29.1026 -0.344349 30.6614 0.343107 31.0945 1.71718L31.3546 2.49062C32.3937 2.23267 33.3466 2.31865 34.2994 2.74816C34.6458 2.92012 34.9922 3.17764 35.3385 3.43517L35.3386 3.43519C37.2442 5.06764 37.5906 7.90219 35.945 9.79217L33.4333 12.7987C33.1732 14.8602 32.307 16.7498 30.9215 18.2962L28.9292 20.6153L29.4489 21.9038L33.0869 20.3578C33.0869 20.2718 33.1732 20.2718 33.1732 20.2718C34.5591 19.8423 36.0317 20.4438 36.5515 21.8183L41.4883 34.9609C41.9213 36.1634 41.4016 37.5379 40.189 38.1394L36.3781 40.0289L37.937 43.7229H40.7955C41.9213 43.7229 42.8742 44.324 43.2206 45.3549L44 47.4165L29.6223 53L28.7562 50.8525C28.3231 49.8215 28.5828 48.705 29.3622 48.0179L31.4409 46.042L29.882 41.3174L25.5513 40.8019L0.692747 51.0245ZM41.6617 46.3855L41.4883 45.8704C41.3153 45.5265 41.0552 45.3549 40.6221 45.3549H37.1575L33.4333 46.5575L30.4885 49.3064C30.3151 49.564 30.2284 49.9075 30.3151 50.251L30.5748 50.7665L41.6617 46.3855ZM36.0317 43.8085L32.9135 44.8394L31.7877 41.5754C32.307 41.661 32.7401 41.5754 33.1732 41.3174L34.6458 40.6304L36.0317 43.8085ZM34.8192 22.0758C34.6458 21.6463 34.126 21.4743 33.693 21.6463L23.9924 25.7693C23.7323 25.8553 23.5593 26.1133 23.4726 26.3708L22.8661 29.5493L26.0711 39.0839L31.9607 39.7714C32.1341 39.7714 32.307 39.7714 32.4804 39.6854L39.3229 36.3354C39.756 36.1634 39.9294 35.7339 39.756 35.3044L39.3229 34.1879L35.2523 35.5623L34.7325 33.9299L38.7169 32.6414L37.6773 29.8928L33.52 31.2673L33.0002 29.6349L37.0708 28.2608L36.0317 25.5118L31.7877 26.8863L31.2679 25.2543L35.5119 23.8798L34.8192 22.0758ZM33.6063 4.2942C34.9922 4.89567 35.6853 6.5277 35.0789 7.98818C35.0179 8.16921 34.9144 8.30797 34.798 8.46388L34.7979 8.46393C34.7488 8.5298 34.6973 8.59873 34.6458 8.67521L33.6063 9.96372C33.52 9.10472 33.3466 8.33169 33.0869 7.47269L31.9607 4.12265C32.5671 4.03666 33.0869 4.12265 33.6063 4.2942ZM9.09452 12.8843C7.70861 13.5717 7.10256 15.1178 7.62191 16.5782C7.9687 17.6948 9.00782 18.4678 10.2203 18.5538L12.0393 18.7257C11.3466 17.8667 10.7401 16.8358 10.307 15.8052L9.09452 12.8843ZM19.9213 21.1308C16.3701 20.7873 13.2519 18.5538 11.9526 15.2037L9.70099 9.53422C9.5276 9.10472 9.70099 8.58923 10.1341 8.41768L28.4094 1.88915C28.6695 1.80317 28.8425 1.80317 29.1026 1.88915C29.2755 1.97513 29.4489 2.14668 29.5356 2.40464L31.4409 8.07416C32.4804 11.2522 31.7877 14.6883 29.6223 17.1793L26.9372 20.2718L27.7166 22.3333L24.5984 23.6218L23.7323 21.4743L19.9213 21.1308ZM16.3701 32.8134L14.3781 33.5864L17.3229 42.3484L24.3388 39.4279L21.394 30.7518L17.9294 32.1263L20.181 38.8264L18.5354 39.3419L16.3701 32.8134Z" fill="#20037D"/>
<path fill-rule="evenodd" clip-rule="evenodd" d="M42.1667 16V15.1429C42.1667 12.743 40.3336 10.8571 38 10.8571V9.14286C40.3336 9.14286 42.1667 7.25739 42.1667 4.85714V4H43.8333V4.85714C43.8333 7.25739 45.6668 9.14286 48 9.14286V10.8571C45.6668 10.8571 43.8333 12.743 43.8333 15.1429V16H42.1667ZM44.9999 10C44.1666 9.48605 43.5001 8.80008 43 7.94294C42.4999 8.80008 41.8334 9.48605 41.0001 10C41.8334 10.5144 42.4999 11.2003 43 12.0575C43.5001 11.2003 44.1666 10.5144 44.9999 10Z" fill="#20037D"/>
<path fill-rule="evenodd" clip-rule="evenodd" d="M5.16667 33V32.1429C5.16667 29.743 3.33358 27.8571 1 27.8571V26.1429C3.33358 26.1429 5.16667 24.2574 5.16667 21.8571V21H6.83333V21.8571C6.83333 24.2574 8.66683 26.1429 11 26.1429V27.8571C8.66683 27.8571 6.83333 29.743 6.83333 32.1429V33H5.16667ZM7.99992 27C7.16658 26.486 6.50008 25.8001 6 24.9429C5.49992 25.8001 4.83341 26.486 4.00008 27C4.83341 27.5144 5.49992 28.2003 6 29.0575C6.50008 28.2003 7.16658 27.5144 7.99992 27Z" fill="#20037D"/>
<path fill-rule="evenodd" clip-rule="evenodd" d="M47.8333 21V21.8571C47.8333 24.2574 49.6668 26.1429 52 26.1429V27.8571C49.6668 27.8571 47.8333 29.743 47.8333 32.1429V33H46.1667V32.1429C46.1667 29.743 44.3336 27.8571 42 27.8571V26.1429C44.3336 26.1429 46.1667 24.2574 46.1667 21.8571V21H47.8333ZM45.0001 27C45.8334 27.5144 46.4999 28.2003 47 29.0575C47.5001 28.2003 48.1666 27.5144 48.9999 27C48.1666 26.486 47.5001 25.8001 47 24.9429C46.4999 25.8001 45.8334 26.486 45.0001 27Z" fill="#20037D"/>
<path d="M25.1934 14.817L26.546 16C31.86 11.3522 26.9324 4.25377 26.6427 4L25 4.92965C25.0967 4.92965 29.4445 11.0988 25.1934 14.817Z" fill="#20037D"/>
</svg>
