<svg width="80" height="82" viewBox="0 0 80 82" fill="none" xmlns="http://www.w3.org/2000/svg">
<path fill-rule="evenodd" clip-rule="evenodd" d="M1.07061 78.9435L0 76.5509L24.2286 66.5831L19.6775 53.0275L0.937273 60.4695L0 57.9445L32.6614 44.7872L33.5987 40.2687C33.866 39.0727 34.5353 38.1421 35.4726 37.6106L34.6693 35.6171L30.2522 35.218C27.1731 34.9525 24.0946 33.7565 21.5514 31.8954L15.2598 31.2309C12.4486 30.8324 10.0394 28.9719 9.10214 26.3139C7.89754 22.8583 9.5041 18.8712 12.9846 17.2761L12.3153 15.5486V15.4156C11.512 13.422 12.5826 11.1631 14.7245 10.3655L42.9688 0.26478C44.9767 -0.532767 47.3859 0.530845 48.0552 2.65677L48.4571 3.85342C50.0631 3.45432 51.5356 3.58735 53.0082 4.25186C53.5435 4.51792 54.0788 4.91636 54.6141 5.3148L54.6141 5.31483C57.5593 7.8405 58.0946 12.226 55.5514 15.1502L51.6696 19.8018C51.2677 22.9913 49.9291 25.9148 47.7878 28.3074L44.7087 31.8954L45.512 33.8889L51.1343 31.4969C51.1343 31.3639 51.2677 31.3639 51.2677 31.3639C53.4095 30.6994 55.6854 31.63 56.4887 33.7565L64.1182 54.0904C64.7875 55.9509 63.9842 58.0775 62.1103 59.0081L56.2207 61.9315L58.6299 67.6468H63.0476C64.7875 67.6468 66.2601 68.5767 66.7954 70.1718L68 73.3613L45.78 82L44.4414 78.6774C43.7721 77.0823 44.1734 75.3549 45.378 74.2919L48.5905 71.2347L46.1813 63.9251L39.4883 63.1275L1.07061 78.9435ZM64.3862 71.7662L64.1182 70.9693C63.8509 70.4372 63.4489 70.1718 62.7796 70.1718H57.4253L51.6696 72.0323L47.1186 76.2854C46.8506 76.6839 46.7166 77.2154 46.8506 77.7469L47.2519 78.5444L64.3862 71.7662ZM55.6854 67.7791L50.8663 69.3742L49.1264 64.3242C49.9291 64.4566 50.5984 64.3242 51.2677 63.9251L53.5435 62.8621L55.6854 67.7791ZM53.8115 34.155C53.5435 33.4905 52.7402 33.2244 52.0709 33.4905L37.0791 39.8696C36.6772 40.0026 36.4099 40.4017 36.2759 40.8001L35.3386 45.7178L40.2916 60.4695L49.3938 61.5331C49.6617 61.5331 49.9291 61.5331 50.197 61.4001L60.7718 56.217C61.4411 55.9509 61.709 55.2864 61.4411 54.6219L60.7718 52.8944L54.4808 55.021L53.6775 52.4953L59.8351 50.5018L58.2286 46.2493L51.8036 48.3759L51.0003 45.8502L57.2913 43.7243L55.6854 39.4711L49.1264 41.5977L48.3232 39.0727L54.8821 36.9461L53.8115 34.155ZM51.9369 6.64386C54.0788 7.57443 55.1501 10.0995 54.2128 12.3591C54.1186 12.6392 53.9585 12.8538 53.7787 13.0951C53.7027 13.197 53.6231 13.3037 53.5435 13.422L51.9369 15.4156C51.8036 14.0865 51.5356 12.8905 51.1343 11.5615L49.3938 6.37844C50.331 6.24541 51.1343 6.37844 51.9369 6.64386ZM14.0552 19.9341C11.9133 20.9977 10.9767 23.3897 11.7793 25.6493C12.3153 27.3768 13.9212 28.5728 15.7951 28.7058L18.6062 28.9719C17.5356 27.6429 16.5984 26.0478 15.9291 24.4533L14.0552 19.9341ZM30.7875 32.6929C25.2992 32.1614 20.4801 28.7058 18.4723 23.5228L14.9924 14.7511C14.7245 14.0865 14.9924 13.289 15.6617 13.0236L43.9054 2.92284C44.3074 2.7898 44.5747 2.7898 44.9767 2.92284C45.244 3.05587 45.512 3.32128 45.646 3.72038L48.5905 12.4921C50.197 17.4091 49.1264 22.7252 45.78 26.5793L41.6302 31.3639L42.8348 34.5534L38.0158 36.547L36.6772 33.2244L30.7875 32.6929ZM25.2992 50.7678L22.2207 51.9638L26.7718 65.5202L37.6144 61.0016L33.0634 47.5783L27.709 49.7049L31.1888 60.071L28.6456 60.8686L25.2992 50.7678Z" fill="#959595"/>
<path fill-rule="evenodd" clip-rule="evenodd" d="M65.25 25V23.6429C65.25 19.8431 62.5004 16.8571 59 16.8571V14.1429C62.5004 14.1429 65.25 11.1575 65.25 7.35714V6H67.75V7.35714C67.75 11.1575 70.5002 14.1429 74 14.1429V16.8571C70.5002 16.8571 67.75 19.8431 67.75 23.6429V25H65.25ZM69.4999 15.5C68.2499 14.6862 67.2501 13.6001 66.5 12.243C65.7499 13.6001 64.7501 14.6862 63.5001 15.5C64.7501 16.3144 65.7499 17.4005 66.5 18.7577C67.2501 17.4005 68.2499 16.3144 69.4999 15.5Z" fill="#959595"/>
<path fill-rule="evenodd" clip-rule="evenodd" d="M8.25 51V49.6429C8.25 45.8431 5.50037 42.8571 2 42.8571V40.1429C5.50037 40.1429 8.25 37.1575 8.25 33.3571V32H10.75V33.3571C10.75 37.1575 13.5002 40.1429 17 40.1429V42.8571C13.5002 42.8571 10.75 45.8431 10.75 49.6429V51H8.25ZM12.4999 41.5C11.2499 40.6862 10.2501 39.6001 9.5 38.243C8.74988 39.6001 7.75012 40.6862 6.50012 41.5C7.75012 42.3144 8.74988 43.4005 9.5 44.7577C10.2501 43.4005 11.2499 42.3144 12.4999 41.5Z" fill="#959595"/>
<path fill-rule="evenodd" clip-rule="evenodd" d="M73.75 32V33.3571C73.75 37.1575 76.5002 40.1429 80 40.1429V42.8571C76.5002 42.8571 73.75 45.8431 73.75 49.6429V51H71.25V49.6429C71.25 45.8431 68.5004 42.8571 65 42.8571V40.1429C68.5004 40.1429 71.25 37.1575 71.25 33.3571V32H73.75ZM69.5001 41.5C70.7501 42.3144 71.7499 43.4005 72.5 44.7577C73.2501 43.4005 74.2499 42.3144 75.4999 41.5C74.2499 40.6862 73.2501 39.6001 72.5 38.243C71.7499 39.6001 70.7501 40.6862 69.5001 41.5Z" fill="#959595"/>
<path d="M39.2901 23.1269L41.319 25C49.29 17.6409 41.8985 6.40179 41.464 6L39 7.47194C39.1451 7.47194 45.6668 17.2398 39.2901 23.1269Z" fill="#959595"/>
</svg>
