<svg width="45" height="45" viewBox="0 0 45 45" fill="none" xmlns="http://www.w3.org/2000/svg">
<path d="M33.4498 15.2805C32.6425 15.7594 31.76 16.0978 30.8398 16.2816C30.0578 15.4605 28.9731 14.9971 27.8398 15.0001C25.6075 14.9833 23.7782 16.7699 23.7399 19.0045C23.7408 19.3148 23.7777 19.6239 23.8499 19.9256C20.5621 19.7702 17.4915 18.2369 15.3899 15.7009C15.0304 16.3074 14.8372 16.9981 14.8299 17.7032C14.83 19.0628 15.5191 20.3294 16.6599 21.0669C16.0084 21.0457 15.3711 20.8708 14.7999 20.5563C14.7999 20.5563 14.7999 20.5563 14.7999 20.6064C14.7934 22.5591 16.1747 24.2405 18.0899 24.6108C17.4862 24.772 16.8541 24.7959 16.24 24.6809C16.7921 26.335 18.3281 27.4591 20.0699 27.4841C18.6198 28.613 16.8369 29.2291 15 29.2361C14.6658 29.2357 14.3318 29.2157 14 29.176C15.8819 30.3678 18.0632 30.9997 20.29 30.998C26.6402 31.1142 31.8821 26.0546 31.9981 19.6974C31.9993 19.63 32 19.5626 32 19.4952C32 19.3217 32 19.1481 32 18.9746C32.7837 18.3996 33.4607 17.6914 34 16.8823C33.2493 17.2113 32.454 17.4272 31.64 17.523C32.496 17.0213 33.1397 16.2239 33.4498 15.2805Z" fill="#20037D"/>
<path fill-rule="evenodd" clip-rule="evenodd" d="M0 22.5C0 10.0736 10.0736 0 22.5 0C34.9264 0 45 10.0736 45 22.5C45 34.9264 34.9264 45 22.5 45C10.0736 45 0 34.9264 0 22.5ZM2.04548 22.5C2.04548 33.7968 11.2032 42.9545 22.5 42.9545C33.7968 42.9545 42.9545 33.7968 42.9545 22.5C42.9545 11.2032 33.7968 2.04548 22.5 2.04548C11.2032 2.04548 2.04548 11.2032 2.04548 22.5Z" fill="#20037D"/>
</svg>
