<svg width="80" height="80" viewBox="0 0 80 80" fill="none" xmlns="http://www.w3.org/2000/svg">
<path d="M0 69.6847C0 75.3822 4.61844 80 10.3153 80H69.6844C75.3822 80 80 75.3816 80 69.6847V10.3156C80 4.61781 75.3816 0 69.6847 0H10.3156C4.61781 0 0 4.61844 0 10.3153V69.6844V69.6847Z" fill="#563D7C"/>
<path d="M33.1741 35.3869V24.0578H43.1463C44.0963 24.0578 45.0119 24.1369 45.8938 24.2953C46.7757 24.4534 47.556 24.7359 48.2344 25.1431C48.9126 25.5503 49.4554 26.1156 49.8626 26.8391C50.2694 27.5628 50.4732 28.49 50.4732 29.6203C50.4732 31.6556 49.8626 33.1256 48.6413 34.03C47.4204 34.9347 45.8601 35.3869 43.9604 35.3869H33.1741V35.3869ZM22.5232 15.7812V64.2188H45.9957C48.1666 64.2188 50.281 63.9475 52.3388 63.4047C54.3966 62.8619 56.2282 62.0253 57.8338 60.8947C59.4391 59.7641 60.7169 58.3053 61.6666 56.5191C62.6166 54.7325 63.0913 52.6181 63.0913 50.1759C63.0913 47.1456 62.3563 44.5566 60.8866 42.4084C59.4166 40.26 57.1891 38.7562 54.2041 37.8969C56.3751 36.8569 58.0148 35.5225 59.1229 33.8944C60.2307 32.2662 60.7848 30.2313 60.7848 27.7888C60.7848 25.5275 60.4116 23.6281 59.6654 22.0903C58.9191 20.5528 57.8676 19.3203 56.5107 18.3931C55.1541 17.4659 53.526 16.7987 51.6263 16.3919C49.7269 15.9847 47.6238 15.7812 45.3173 15.7812H22.5232V15.7812ZM33.1741 55.9422V42.6456H44.7744C47.081 42.6456 48.9354 43.1769 50.3376 44.24C51.7394 45.3028 52.4407 47.0778 52.4407 49.5653C52.4407 50.8319 52.2257 51.8719 51.796 52.6859C51.3663 53.5 50.7898 54.1447 50.066 54.6194C49.3426 55.0944 48.5057 55.4334 47.556 55.6372C46.606 55.8403 45.6113 55.9422 44.571 55.9422H33.1741V55.9422Z" fill="white"/>
</svg>
