<svg width="71" height="80" viewBox="0 0 71 80" fill="none" xmlns="http://www.w3.org/2000/svg">
<path d="M35.2269 80L6.4197 72.0028L0 0H70.5401L64.1137 71.9918L35.2269 80V80Z" fill="#264DE4"/>
<path d="M58.612 67.4075L64.1035 5.88708H35.27V73.8786L58.612 67.4075V67.4075Z" fill="#2965F1"/>
<path d="M14.717 32.592L15.5084 41.4229H35.2702V32.592H14.717Z" fill="#EBEBEB"/>
<path d="M13.1265 14.7183L13.9292 23.5491H35.2701V14.7183H13.1265V14.7183Z" fill="#EBEBEB"/>
<path d="M35.27 55.5267L35.2313 55.5369L25.3965 52.8813L24.7677 45.8384H15.9028L17.1399 59.7042L35.2294 64.7256L35.27 64.7145V55.5267Z" fill="#EBEBEB"/>
<path d="M55.7667 32.592L57.3608 14.7183H35.2395V23.5491H47.683L46.8794 32.592H35.2395V41.4229H46.1138L45.0885 52.8759L35.2393 55.5342V64.7215L53.3431 59.7043L53.4758 58.2122L55.5513 34.9634L55.7667 32.592V32.592Z" fill="white"/>
</svg>
