<svg width="220" height="214" viewBox="0 0 220 214" fill="none" xmlns="http://www.w3.org/2000/svg">
<g filter="url(#filter0_d)">
<path d="M209.125 96.9075C209.125 150.428 164.549 193.815 109.562 193.815C54.5756 193.815 10 150.428 10 96.9075C10 43.387 54.5756 0 109.562 0C164.549 0 209.125 43.387 209.125 96.9075ZM29.9125 96.9075C29.9125 139.724 65.573 174.434 109.562 174.434C153.552 174.434 189.212 139.724 189.212 96.9075C189.212 54.0911 153.552 19.3815 109.562 19.3815C65.573 19.3815 29.9125 54.0911 29.9125 96.9075Z" fill="#EFE9E9"/>
</g>
<g filter="url(#filter1_d)">
<path d="M156.582 171.426C159.41 175.908 165.332 177.354 169.601 174.213C184.265 163.424 195.627 148.852 202.342 132.065C210.222 112.363 211.267 90.6931 205.316 70.3594C199.365 50.0256 186.746 32.1439 169.381 19.441C154.61 8.63469 137.094 2.08064 118.82 0.41974C113.489 -0.06479 109.159 4.34089 109.182 9.69376V9.69376C109.205 15.0449 113.576 19.3048 118.893 19.9151C132.815 21.5135 146.12 26.6692 157.418 34.9343C171.309 45.0966 181.405 59.402 186.165 75.669C190.926 91.936 190.09 109.272 183.786 125.034C178.707 137.731 170.303 148.846 159.486 157.315C155.168 160.696 153.656 166.789 156.582 171.426V171.426Z" fill="#029DF4"/>
</g>
<defs>
<filter id="filter0_d" x="0" y="0" width="219.125" height="213.815" filterUnits="userSpaceOnUse" color-interpolation-filters="sRGB">
<feFlood flood-opacity="0" result="BackgroundImageFix"/>
<feColorMatrix in="SourceAlpha" type="matrix" values="0 0 0 0 0 0 0 0 0 0 0 0 0 0 0 0 0 0 127 0"/>
<feOffset dy="10"/>
<feGaussianBlur stdDeviation="5"/>
<feColorMatrix type="matrix" values="0 0 0 0 0.678431 0 0 0 0 0.678431 0 0 0 0 0.678431 0 0 0 0.5 0"/>
<feBlend mode="normal" in2="BackgroundImageFix" result="effect1_dropShadow"/>
<feBlend mode="normal" in="SourceGraphic" in2="effect1_dropShadow" result="shape"/>
</filter>
<filter id="filter1_d" x="99.1819" y="0.38324" width="119.943" height="195.511" filterUnits="userSpaceOnUse" color-interpolation-filters="sRGB">
<feFlood flood-opacity="0" result="BackgroundImageFix"/>
<feColorMatrix in="SourceAlpha" type="matrix" values="0 0 0 0 0 0 0 0 0 0 0 0 0 0 0 0 0 0 127 0"/>
<feOffset dy="10"/>
<feGaussianBlur stdDeviation="5"/>
<feColorMatrix type="matrix" values="0 0 0 0 0.678431 0 0 0 0 0.678431 0 0 0 0 0.678431 0 0 0 0.5 0"/>
<feBlend mode="normal" in2="BackgroundImageFix" result="effect1_dropShadow"/>
<feBlend mode="normal" in="SourceGraphic" in2="effect1_dropShadow" result="shape"/>
</filter>
</defs>
</svg>
