<svg width="60" height="60" viewBox="0 0 60 60" fill="none" xmlns="http://www.w3.org/2000/svg">
<circle cx="30" cy="30" r="30" fill="#029DF4"/>
<path fill-rule="evenodd" clip-rule="evenodd" d="M37.5516 30.606C36.0576 32.124 35.3751 34.308 35.7291 36.4515L36.3846 40.4355L32.9496 38.5545C32.0436 38.058 31.0236 37.7955 30.0006 37.7955C28.976 37.7955 27.956 38.058 27.05 38.5545L23.615 40.4355L24.272 36.4515C24.6245 34.308 23.942 32.124 22.448 30.606L19.67 27.7845L23.51 27.2025C25.5755 26.8905 27.359 25.5405 28.283 23.5905L30.0006 19.965L31.7181 23.5905C32.6406 25.5405 34.4256 26.8905 36.4896 27.2025L40.3311 27.7845L37.5516 30.606ZM44.1771 29.1495C45.7881 27.513 44.9001 24.6615 42.6726 24.324L37.0116 23.4675C36.1266 23.334 35.3616 22.755 34.9671 21.9195L32.4351 16.5765C31.937 15.525 30.968 15 30.0005 15C29.0315 15 28.0625 15.525 27.5645 16.5765L25.034 21.9195C24.638 22.755 23.873 23.334 22.9895 23.4675L17.3285 24.324C15.101 24.6615 14.2115 27.513 15.8225 29.1495L19.919 33.309C20.5595 33.9585 20.852 34.8945 20.7005 35.8125L19.733 41.6865C19.4315 43.515 20.8265 45 22.409 45C22.826 45 23.258 44.8965 23.6735 44.6685L28.736 41.895C29.132 41.679 29.5655 41.5695 30.0005 41.5695C30.434 41.5695 30.8675 41.679 31.2635 41.895L36.3276 44.6685C36.7431 44.8965 37.1736 45 37.5906 45C39.1731 45 40.5681 43.515 40.2666 41.6865L39.3006 35.8125C39.1491 34.8945 39.4401 33.9585 40.0806 33.309L44.1771 29.1495Z" fill="white"/>
</svg>
