<svg width="38" height="38" viewBox="0 0 38 38" fill="none" xmlns="http://www.w3.org/2000/svg">
<ellipse cx="19" cy="19.3584" rx="19" ry="18.4933" fill="#08336D"/>
<path fill-rule="evenodd" clip-rule="evenodd" d="M18.7899 19.1539C16.5943 19.1539 14.8088 17.416 14.8088 15.279C14.8088 13.142 16.5943 11.4041 18.7899 11.4041C20.9854 11.4041 22.7709 13.142 22.7709 15.279C22.7709 17.416 20.9854 19.1539 18.7899 19.1539M22.53 19.8058C23.8896 18.7412 24.7614 17.1099 24.7614 15.279C24.7614 12.0686 22.0881 9.46661 18.7898 9.46661C15.4915 9.46661 12.8182 12.0686 12.8182 15.279C12.8182 17.1099 13.6901 18.7412 15.0496 19.8058C11.4079 21.1378 8.83716 24.4286 8.83716 28.8412H10.8277C10.8277 23.9975 14.3997 21.0913 18.7898 21.0913C23.18 21.0913 26.752 23.9975 26.752 28.8412H28.7425C28.7425 24.4286 26.1717 21.1378 22.53 19.8058" fill="white"/>
</svg>
