<svg width="30" height="30" viewBox="0 0 30 30" fill="none" xmlns="http://www.w3.org/2000/svg">
<ellipse cx="14.9896" cy="14.6457" rx="14.9896" ry="14.5898" fill="#08336D"/>
<path fill-rule="evenodd" clip-rule="evenodd" d="M14.8237 14.4843C13.0916 14.4843 11.6829 13.1133 11.6829 11.4273C11.6829 9.7414 13.0916 8.37033 14.8237 8.37033C16.5558 8.37033 17.9645 9.7414 17.9645 11.4273C17.9645 13.1133 16.5558 14.4843 14.8237 14.4843M17.7746 14.9987C18.8472 14.1588 19.535 12.8718 19.535 11.4273C19.535 8.89461 17.426 6.84183 14.8238 6.84183C12.2217 6.84183 10.1127 8.89461 10.1127 11.4273C10.1127 12.8718 10.8005 14.1588 11.8731 14.9987C9.00007 16.0495 6.97192 18.6457 6.97192 22.1269H8.54231C8.54231 18.3056 11.3604 16.0129 14.8238 16.0129C18.2873 16.0129 21.1054 18.3056 21.1054 22.1269H22.6757C22.6757 18.6457 20.6476 16.0495 17.7746 14.9987" fill="white"/>
</svg>
