<svg width="38" height="37" viewBox="0 0 38 37" fill="none" xmlns="http://www.w3.org/2000/svg">
<ellipse cx="19.3451" cy="18.5076" rx="18.6548" ry="18.1574" fill="#029DF4"/>
<path fill-rule="evenodd" clip-rule="evenodd" d="M24.041 18.8744C23.112 19.7931 22.6876 21.115 22.9077 22.4123L23.3153 24.8236L21.1793 23.6852C20.616 23.3847 19.9817 23.2258 19.3456 23.2258C18.7085 23.2258 18.0742 23.3847 17.5108 23.6852L15.3749 24.8236L15.7834 22.4123C16.0026 21.115 15.5782 19.7931 14.6492 18.8744L12.9217 17.1667L15.3096 16.8144C16.594 16.6256 17.703 15.8085 18.2776 14.6283L19.3456 12.434L20.4136 14.6283C20.9872 15.8085 22.0972 16.6256 23.3806 16.8144L25.7694 17.1667L24.041 18.8744ZM28.1609 17.9928C29.1627 17.0024 28.6105 15.2765 27.2254 15.0722L23.7052 14.5538C23.1549 14.473 22.6792 14.1226 22.4339 13.6169L20.8594 10.3831C20.5497 9.74668 19.9472 9.42892 19.3456 9.42892C18.743 9.42892 18.1405 9.74668 17.8308 10.3831L16.2572 13.6169C16.011 14.1226 15.5353 14.473 14.9859 14.5538L11.4657 15.0722C10.0806 15.2765 9.52749 17.0024 10.5293 17.9928L13.0766 20.5104C13.4749 20.9035 13.6568 21.47 13.5625 22.0256L12.9609 25.5808C12.7734 26.6875 13.6409 27.5863 14.6249 27.5863C14.8842 27.5863 15.1529 27.5236 15.4112 27.3856L18.5593 25.707C18.8055 25.5763 19.0751 25.51 19.3456 25.51C19.6151 25.51 19.8847 25.5763 20.1309 25.707L23.2799 27.3856C23.5383 27.5236 23.806 27.5863 24.0653 27.5863C25.0493 27.5863 25.9168 26.6875 25.7293 25.5808L25.1286 22.0256C25.0344 21.47 25.2153 20.9035 25.6136 20.5104L28.1609 17.9928Z" fill="white"/>
</svg>
