<svg width="45" height="45" viewBox="0 0 45 45" fill="none" xmlns="http://www.w3.org/2000/svg">
<circle cx="22.5" cy="22.5" r="22.5" fill="#08336D"/>
<path fill-rule="evenodd" clip-rule="evenodd" d="M22.2512 22.2512C19.6512 22.2512 17.5368 20.1368 17.5368 17.5368C17.5368 14.9367 19.6512 12.8223 22.2512 12.8223C24.8512 12.8223 26.9656 14.9367 26.9656 17.5368C26.9656 20.1368 24.8512 22.2512 22.2512 22.2512ZM26.6804 23.0444C28.2904 21.7491 29.3228 19.7643 29.3228 17.5368C29.3228 13.6309 26.1571 10.4651 22.2512 10.4651C18.3453 10.4651 15.1795 13.6309 15.1795 17.5368C15.1795 19.7643 16.212 21.7491 17.822 23.0444C13.5095 24.665 10.4651 28.6687 10.4651 34.0372H12.8223C12.8223 28.1442 17.0523 24.6084 22.2512 24.6084C27.45 24.6084 31.68 28.1442 31.68 34.0372H34.0372C34.0372 28.6687 30.9929 24.665 26.6804 23.0444Z" fill="white"/>
</svg>
