<svg width="35" height="35" viewBox="0 0 35 35" fill="none" xmlns="http://www.w3.org/2000/svg">
<circle cx="17.5" cy="17.5" r="17.5" fill="#029DF4"/>
<path fill-rule="evenodd" clip-rule="evenodd" d="M23 15C23 16.105 22.105 17 21 17C19.895 17 19 16.105 19 15C19 13.895 19.895 13 21 13C22.105 13 23 13.895 23 15ZM21.891 19.156C20.877 24.281 13.123 24.281 12.109 19.156C11.99 18.552 12.492 18 13.108 18C13.588 18 13.98 18.347 14.092 18.814C14.787 21.729 19.213 21.729 19.908 18.814C20.02 18.347 20.412 18 20.892 18C21.508 18 22.01 18.552 21.891 19.156ZM13 17C11.895 17 11 16.105 11 15C11 13.895 11.895 13 13 13C14.105 13 15 13.895 15 15C15 16.105 14.105 17 13 17ZM17 25C12.589 25 9 21.411 9 17C9 12.589 12.589 8.99999 17 8.99999C21.411 8.99999 25 12.589 25 17C25 21.411 21.411 25 17 25ZM17 7C11.477 7 7 11.477 7 17C7 22.523 11.477 27 17 27C22.523 27 27 22.523 27 17C27 11.477 22.523 7 17 7Z" fill="white"/>
</svg>
