<svg width="26" height="25" viewBox="0 0 26 25" fill="none" xmlns="http://www.w3.org/2000/svg">
<ellipse cx="12.9954" cy="12.6364" rx="12.5" ry="12.1667" fill="#029DF4"/>
<path fill-rule="evenodd" clip-rule="evenodd" d="M16.9239 10.8983C16.9239 11.6665 16.2846 12.2887 15.4953 12.2887C14.706 12.2887 14.0667 11.6665 14.0667 10.8983C14.0667 10.13 14.706 9.5078 15.4953 9.5078C16.2846 9.5078 16.9239 10.13 16.9239 10.8983M16.1316 13.7877C15.4073 17.3508 9.86876 17.3508 9.14448 13.7877C9.05948 13.3678 9.41805 12.984 9.85805 12.984C10.2009 12.984 10.4809 13.2253 10.5609 13.55C11.0573 15.5766 14.2188 15.5766 14.7152 13.55C14.7952 13.2253 15.0752 12.984 15.418 12.984C15.858 12.984 16.2166 13.3678 16.1316 13.7877M9.78091 12.2887C8.99162 12.2887 8.35234 11.6665 8.35234 10.8983C8.35234 10.13 8.99162 9.5078 9.78091 9.5078C10.5702 9.5078 11.2095 10.13 11.2095 10.8983C11.2095 11.6665 10.5702 12.2887 9.78091 12.2887M12.6379 17.8507C9.48722 17.8507 6.92364 15.3555 6.92364 12.2888C6.92364 9.22208 9.48722 6.72687 12.6379 6.72687C15.7886 6.72687 18.3522 9.22208 18.3522 12.2888C18.3522 15.3555 15.7886 17.8507 12.6379 17.8507M12.6381 5.3364C8.6931 5.3364 5.49524 8.44898 5.49524 12.2888C5.49524 16.1286 8.6931 19.2412 12.6381 19.2412C16.5831 19.2412 19.781 16.1286 19.781 12.2888C19.781 8.44898 16.5831 5.3364 12.6381 5.3364" fill="white"/>
</svg>
