<svg width="18" height="18" viewBox="0 0 18 18" fill="none" xmlns="http://www.w3.org/2000/svg">
<ellipse cx="9.00265" cy="8.52792" rx="8.76156" ry="8.52792" fill="#029DF4"/>
<path fill-rule="evenodd" clip-rule="evenodd" d="M11.7563 7.30966C11.7563 7.84814 11.3082 8.28428 10.755 8.28428C10.2017 8.28428 9.75365 7.84814 9.75365 7.30966C9.75365 6.77118 10.2017 6.33504 10.755 6.33504C11.3082 6.33504 11.7563 6.77118 11.7563 7.30966M11.2011 9.33493C10.6934 11.8324 6.8113 11.8324 6.30363 9.33493C6.24405 9.0406 6.49538 8.7716 6.80379 8.7716C7.0441 8.7716 7.24036 8.9407 7.29644 9.16827C7.64439 10.5888 9.86032 10.5888 10.2083 9.16827C10.2644 8.9407 10.4606 8.7716 10.7009 8.7716C11.0093 8.7716 11.2607 9.0406 11.2011 9.33493M6.74971 8.28428C6.19648 8.28428 5.74838 7.84814 5.74838 7.30966C5.74838 6.77118 6.19648 6.33504 6.74971 6.33504C7.30293 6.33504 7.75103 6.77118 7.75103 7.30966C7.75103 7.84814 7.30293 8.28428 6.74971 8.28428M8.75231 12.1828C6.54389 12.1828 4.74702 10.4338 4.74702 8.28428C4.74702 6.13475 6.54389 4.3858 8.75231 4.3858C10.9607 4.3858 12.7576 6.13475 12.7576 8.28428C12.7576 10.4338 10.9607 12.1828 8.75231 12.1828M8.75233 3.41119C5.98718 3.41119 3.74573 5.59288 3.74573 8.28429C3.74573 10.9757 5.98718 13.1574 8.75233 13.1574C11.5175 13.1574 13.7589 10.9757 13.7589 8.28429C13.7589 5.59288 11.5175 3.41119 8.75233 3.41119" fill="white"/>
</svg>
