<svg width="51" height="50" viewBox="0 0 51 50" fill="none" xmlns="http://www.w3.org/2000/svg">
<ellipse cx="25.7581" cy="24.6836" rx="25" ry="24.3333" fill="#029DF4"/>
<path fill-rule="evenodd" clip-rule="evenodd" d="M32.0511 25.1751C30.8061 26.4064 30.2374 28.1779 30.5324 29.9165L31.0786 33.148L28.2161 31.6223C27.4611 31.2195 26.6111 31.0066 25.7586 31.0066C24.9049 31.0066 24.0549 31.2195 23.2999 31.6223L20.4373 33.148L20.9848 29.9165C21.2786 28.1779 20.7098 26.4064 19.4648 25.1751L17.1498 22.8866L20.3498 22.4145C22.0711 22.1614 23.5574 21.0664 24.3274 19.4848L25.7586 16.5441L27.1899 19.4848C27.9586 21.0664 29.4461 22.1614 31.1661 22.4145L34.3674 22.8866L32.0511 25.1751ZM37.5726 23.9938C38.9151 22.6664 38.1751 20.3535 36.3188 20.0798L31.6013 19.385C30.8638 19.2768 30.2263 18.8071 29.8975 18.1294L27.7875 13.7957C27.3725 12.9428 26.565 12.517 25.7587 12.517C24.9512 12.517 24.1437 12.9428 23.7287 13.7957L21.62 18.1294C21.29 18.8071 20.6525 19.2768 19.9162 19.385L15.1987 20.0798C13.3424 20.3535 12.6012 22.6664 13.9437 23.9938L17.3575 27.3676C17.8912 27.8944 18.135 28.6536 18.0087 29.3982L17.2025 34.1627C16.9512 35.6458 18.1137 36.8503 19.4325 36.8503C19.78 36.8503 20.14 36.7663 20.4862 36.5814L24.705 34.3318C25.035 34.1566 25.3962 34.0678 25.7587 34.0678C26.12 34.0678 26.4813 34.1566 26.8113 34.3318L31.0313 36.5814C31.3775 36.7663 31.7363 36.8503 32.0838 36.8503C33.4025 36.8503 34.565 35.6458 34.3138 34.1627L33.5088 29.3982C33.3825 28.6536 33.625 27.8944 34.1588 27.3676L37.5726 23.9938Z" fill="white"/>
</svg>
