<svg width="81" height="81" viewBox="0 0 81 81" fill="none" xmlns="http://www.w3.org/2000/svg">
<path d="M40.7756 0.960819C18.7206 0.951638 0.857178 19.3313 0.857178 42.0166C0.857178 59.9555 12.0318 75.2046 27.5943 80.8047C29.6901 81.3464 29.3691 79.8132 29.3691 78.7666V71.6517C17.2669 73.1114 16.7764 64.8672 15.9648 63.4901C14.3238 60.6074 10.4444 59.8729 11.6038 58.4958C14.3595 57.0361 17.1688 58.863 20.424 63.8114C22.7784 67.401 27.3714 66.7951 29.699 66.1984C30.2074 64.0409 31.2954 62.113 32.7937 60.6165C20.2545 58.303 15.0284 50.426 15.0284 41.0618C15.0284 36.5174 16.4821 32.3402 19.3359 28.9709C17.5166 23.4166 19.5054 18.6611 19.7729 17.9542C24.9545 17.4768 30.3412 21.7733 30.7603 22.113C33.7034 21.2959 37.0656 20.8644 40.8291 20.8644C44.6105 20.8644 47.9816 21.3143 50.9514 22.1405C51.9592 21.351 56.9534 17.6604 61.7693 18.1102C62.028 18.8171 63.9722 23.4625 62.2598 28.9434C65.1494 32.3218 66.6209 36.5358 66.6209 41.0893C66.6209 50.472 61.3591 58.3581 48.7843 60.6349C49.8613 61.7253 50.7165 63.0257 51.2999 64.4601C51.8833 65.8945 52.1833 67.4342 52.1821 68.9893V79.3175C52.2535 80.1437 52.1821 80.9608 53.5199 80.9608C69.3142 75.48 80.6851 60.1208 80.6851 42.0258C80.6851 19.3313 62.8128 0.960819 40.7756 0.960819V0.960819Z" fill="black"/>
</svg>
