<svg width="71" height="80" viewBox="0 0 71 80" fill="none" xmlns="http://www.w3.org/2000/svg">
<path d="M70.5401 0L64.1137 71.9918L35.2269 80L6.4197 72.0028L0 0H70.5401Z" fill="#E44D26"/>
<path d="M35.27 73.8786L58.612 67.4075L64.1035 5.88708H35.27V73.8786Z" fill="#F16529"/>
<path d="M22.7774 23.549H35.2701V14.7181H13.1265L13.3377 17.0873L15.5083 41.4228H35.2701V32.5919H23.5846L22.7774 23.549V23.549Z" fill="#EBEBEB"/>
<path d="M24.7679 45.8385H15.9031L17.1402 59.7043L35.2296 64.7257L35.2703 64.7146V55.5268L35.2316 55.537L25.3967 52.8814L24.7679 45.8385V45.8385Z" fill="#EBEBEB"/>
<path d="M35.2398 41.4228H46.114L45.0887 52.8757L35.2395 55.5341V64.7214L53.3433 59.7041L53.4761 58.2121L55.5515 34.9633L55.7669 32.5919H35.2398V41.4228Z" fill="white"/>
<path d="M35.2397 23.5274V23.549H56.5704L56.7474 21.5642L57.15 17.0873L57.361 14.7181H35.2397V23.5277V23.5274Z" fill="white"/>
</svg>
