<svg width="80" height="80" viewBox="0 0 80 80" fill="none" xmlns="http://www.w3.org/2000/svg">
<path d="M0 0H80V80H0V0Z" fill="#F7DF1E"/>
<path d="M21.035 66.8538L27.1569 63.1488C28.3381 65.2429 29.4125 67.0148 31.9897 67.0148C34.46 67.0148 36.0178 66.0485 36.0178 62.2898V36.7279H43.5356V62.396C43.5356 70.1826 38.9712 73.727 32.3119 73.727C26.2978 73.727 22.8069 70.6123 21.0347 66.8532" fill="black"/>
<path d="M47.6192 66.0479L53.7405 62.5039C55.352 65.1354 57.4464 67.0685 61.1514 67.0685C64.2667 67.0685 66.253 65.511 66.253 63.3629C66.253 60.7854 64.2123 59.8723 60.7755 58.3692L58.8964 57.5629C53.4723 55.2545 49.8745 52.3545 49.8745 46.2326C49.8745 40.5939 54.1705 36.2976 60.8833 36.2976C65.6626 36.2976 69.0995 37.9626 71.5695 42.3123L65.7158 46.0717C64.4267 43.7626 63.0311 42.8498 60.883 42.8498C58.6811 42.8498 57.2848 44.246 57.2848 46.0717C57.2848 48.327 58.6811 49.2404 61.903 50.6367L63.7823 51.442C70.173 54.181 73.7708 56.9732 73.7708 63.2557C73.7708 70.0226 68.4545 73.7276 61.3123 73.7276C54.3314 73.7276 49.8205 70.3982 47.6189 66.0482" fill="black"/>
</svg>
